<svg width="38" height="40" viewBox="0 0 38 40" fill="none" xmlns="http://www.w3.org/2000/svg">
<g id="Group">
<path id="Vector" fill-rule="evenodd" clip-rule="evenodd" d="M19.0001 3.9641L13.3398 7.23205V13.7679L19.0001 17.0359L24.6604 13.7679V7.23205L19.0001 3.9641ZM27.6604 5.5L19.0001 0.5L10.3398 5.5V15.5L19.0001 20.5L27.6604 15.5V5.5Z" fill="#91939B"/>
<path id="Vector_2" fill-rule="evenodd" clip-rule="evenodd" d="M9.0001 22.9641L3.33984 26.2321V32.7679L9.0001 36.0359L14.6604 32.7679V26.2321L9.0001 22.9641ZM17.6604 24.5L9.0001 19.5L0.339844 24.5V34.5L9.0001 39.5L17.6604 34.5V24.5Z" fill="#91939B"/>
<path id="Vector_3" fill-rule="evenodd" clip-rule="evenodd" d="M29.0001 22.9641L23.3398 26.2321V32.7679L29.0001 36.0359L34.6604 32.7679V26.2321L29.0001 22.9641ZM37.6604 24.5L29.0001 19.5L20.3398 24.5V34.5L29.0001 39.5L37.6604 34.5V24.5Z" fill="#91939B"/>
</g>
</svg>
