<svg width="40" height="40" viewBox="0 0 40 40" fill="none" xmlns="http://www.w3.org/2000/svg">
<g id="Icon (40x40) / Reward">
<g id="Group">
<path id="Vector" fill-rule="evenodd" clip-rule="evenodd" d="M20 3.24718L8.15396 8.15396L3.24718 20L8.15396 31.846L20 36.7528L31.846 31.846L36.7528 20L31.846 8.15396L20 3.24718ZM34.1421 5.85786L20 0L5.85786 5.85786L0 20L5.85786 34.1421L20 40L34.1421 34.1421L40 20L34.1421 5.85786Z" fill="#FFC300"/>
<path id="Vector_2" d="M25.8711 20.3396C25.6258 20.2038 25.3716 20.0934 25.1175 20C25.3716 19.9066 25.6258 19.7962 25.8711 19.6604C27.5536 18.7181 28.4912 17.0116 28.5 15.2542C26.9314 14.3798 24.9335 14.3119 23.2423 15.2542C22.9969 15.3901 22.7691 15.5514 22.5588 15.7127C22.6026 15.4495 22.6289 15.1778 22.6289 14.9062C22.6289 13.0214 21.5686 11.3829 20 10.5C18.4314 11.3829 17.3711 13.0214 17.3711 14.9062C17.3711 15.1778 17.3974 15.4495 17.4412 15.7127C17.2309 15.5429 17.0031 15.3816 16.7577 15.2458C15.0753 14.3034 13.0773 14.3713 11.5 15.2458C11.5 17.0031 12.4376 18.7096 14.1289 19.6519C14.3742 19.7878 14.6284 19.8981 14.8825 19.9915C14.6284 20.0849 14.3742 20.1953 14.1289 20.3311C12.4464 21.2735 11.5088 22.9799 11.5 24.7373C13.0686 25.6117 15.0665 25.6796 16.7577 24.7373C17.0031 24.6014 17.2309 24.4401 17.4412 24.2788C17.3974 24.5505 17.3711 24.8222 17.3711 25.0938C17.3711 26.9786 18.4314 28.6171 20 29.5C21.5686 28.6171 22.6289 26.9786 22.6289 25.0938C22.6289 24.8222 22.6026 24.5505 22.5588 24.2873C22.7691 24.4571 22.9969 24.6099 23.2423 24.7458C24.9247 25.6881 26.9227 25.6202 28.5 24.7458C28.4912 22.9884 27.5536 21.2819 25.8711 20.3396ZM20 23.3959C18.0634 23.3959 16.4948 21.8762 16.4948 20C16.4948 18.1238 18.0634 16.6041 20 16.6041C21.9366 16.6041 23.5052 18.1238 23.5052 20C23.5052 21.8762 21.9366 23.3959 20 23.3959Z" fill="#FFC300"/>
</g>
</g>
</svg>
