<svg viewBox="0 0 17 16" fill="none" xmlns="http://www.w3.org/2000/svg">
<path d="M12.9668 8.26667C12.7801 8.16001 12.5868 8.07334 12.3934 8.00001C12.5868 7.92668 12.7801 7.84001 12.9668 7.73334C14.2468 6.99334 14.9601 5.65334 14.9668 4.27334C13.7734 3.58668 12.2534 3.53334 10.9668 4.27334C10.7801 4.38001 10.6068 4.50668 10.4468 4.63334C10.4801 4.42668 10.5001 4.21334 10.5001 4.00001C10.5001 2.52001 9.69345 1.23334 8.50011 0.540009C7.30678 1.23334 6.50011 2.52001 6.50011 4.00001C6.50011 4.21334 6.52011 4.42668 6.55345 4.63334C6.39345 4.50001 6.22011 4.37334 6.03345 4.26668C4.75345 3.52668 3.23345 3.58001 2.03345 4.26668C2.03345 5.64668 2.74678 6.98668 4.03345 7.72668C4.22011 7.83334 4.41345 7.92001 4.60678 7.99334C4.41345 8.06668 4.22011 8.15334 4.03345 8.26001C2.75345 9.00001 2.04011 10.34 2.03345 11.72C3.22678 12.4067 4.74678 12.46 6.03345 11.72C6.22011 11.6133 6.39345 11.4867 6.55345 11.36C6.52011 11.5733 6.50011 11.7867 6.50011 12C6.50011 13.48 7.30678 14.7667 8.50011 15.46C9.69345 14.7667 10.5001 13.48 10.5001 12C10.5001 11.7867 10.4801 11.5733 10.4468 11.3667C10.6068 11.5 10.7801 11.62 10.9668 11.7267C12.2468 12.4667 13.7668 12.4133 14.9668 11.7267C14.9601 10.3467 14.2468 9.00667 12.9668 8.26667ZM8.50011 10.6667C7.02678 10.6667 5.83345 9.47334 5.83345 8.00001C5.83345 6.52668 7.02678 5.33334 8.50011 5.33334C9.97345 5.33334 11.1668 6.52668 11.1668 8.00001C11.1668 9.47334 9.97345 10.6667 8.50011 10.6667Z" fill="currentColor"/>
</svg>
