<svg viewBox="0 0 40 40" fill="none" xmlns="http://www.w3.org/2000/svg">
<path id="Vector" d="M4.99998 11.25V8.33333C4.99998 6.49238 6.49236 5 8.33331 5H31.6666C33.5076 5 35 6.49238 35 8.33333V31.6667C35 33.5076 33.5076 35 31.6666 35H8.33331C6.49236 35 4.99998 33.5076 4.99998 31.6667V28.75M4.99998 11.25H3.33331V17.0833H4.99998M4.99998 11.25V17.0833M4.99998 17.0833V22.9167M4.99998 28.75V22.9167M4.99998 28.75H3.33331V22.9167H4.99998M26.6666 20C26.6666 23.6819 23.6819 26.6667 20 26.6667M26.6666 20C26.6666 16.3181 23.6819 13.3333 20 13.3333M26.6666 20H30M20 26.6667C16.3181 26.6667 13.3333 23.6819 13.3333 20M20 26.6667V30M13.3333 20C13.3333 16.3181 16.3181 13.3333 20 13.3333M13.3333 20H9.99998M20 13.3333V10M19.5833 20H20.4166" stroke="currentColor" stroke-width="3.33333" stroke-linecap="round" stroke-linejoin="round"/>
</svg>
