<svg width="320" height="160" viewBox="0 0 320 160" fill="none" xmlns="http://www.w3.org/2000/svg">
<g clip-path="url(#clip0_2637_11229)">
<rect width="320" height="160" fill="#FDFDFD"/>
<path d="M193.806 50.3468C194.119 50.7124 194.428 51.0781 194.741 51.4468C193.022 51.9156 191.212 51.6718 189.497 52.0312C184.578 53.0625 179.594 53.7937 174.809 55.4343C172.037 56.3843 172.016 56.2562 173.531 58.7781C173.975 59.5156 174.375 59.7343 175.281 59.4312C177.391 58.7218 179.553 58.1625 181.709 57.6C187.041 56.2093 192.466 55.3812 197.956 54.9625C198.916 55.7281 198.909 56.2124 197.628 56.6281C195.366 57.3624 193.144 58.2187 190.912 59.0375C190.437 59.2125 189.909 59.3 189.387 59.9125C192.984 61.9687 195.769 65.25 199.7 66.5937C203.034 67.7343 206.581 68.25 210.031 69.0625C211.253 69.35 212.353 70.0968 213.669 70.0406C213.65 70.2375 213.719 70.5187 213.447 70.55C211.141 70.8125 208.869 71.5156 206.512 71.1124C205.991 71.0218 205.481 70.7812 204.891 71.0218C205.225 71.6343 205.781 71.7031 206.222 71.9406C211.372 74.7 216.766 76.8218 222.375 78.4624C229.609 80.5781 236.959 82.0812 244.422 83.1093C245.647 83.2781 246.972 83.0375 248.116 83.7406C243.359 86.0468 238.716 88.5625 233.478 89.7562C226.519 91.3437 219.872 90.5375 213.416 87.65C210.862 86.5062 208.359 85.2562 205.703 83.5781C206.684 87.425 208.269 90.75 209.478 94.1843C209.35 94.2718 209.275 94.3562 209.184 94.3812C206.856 95.0156 206.878 95.0093 207.409 97.5187C207.966 100.144 208.475 102.781 209.009 105.412C209.175 106.225 209.05 106.909 208.422 107.537C207.959 108.003 207.647 108.619 207.162 109.322C208.55 109.297 209.609 108.787 210.653 108.303C220.906 103.512 231.15 98.7031 241.525 94.1781C246.569 91.9781 251.672 89.9156 256.694 87.6718C257.866 87.1499 258.006 87.8843 258.416 88.5062C259.012 89.4093 258.259 89.4624 257.706 89.7156C245.212 95.4062 232.666 100.987 220.294 106.944C218.316 107.897 216.362 108.906 214.116 110.031C217.703 110.569 220.944 111.091 224.191 111.534C230.703 112.422 237.159 113.637 243.622 114.819C251.553 116.266 259.372 118.209 267.228 120C269.497 120.516 269.509 120.459 269.847 123.159C270.256 126.416 270.241 126.472 267.219 125.566C255.431 122.034 243.409 119.547 231.284 117.569C222.744 116.175 214.162 115.034 205.597 113.797C205.094 113.725 204.572 113.647 204.069 113.909C201.725 115.128 199.378 116.337 196.825 117.656C221.031 125.781 243.672 136.294 263.05 153.031C264.422 150.181 265.828 147.309 267.184 144.412C267.709 143.294 268.497 142.462 269.45 141.703C270.422 140.928 271.306 140.034 272.2 139.162C273.294 138.094 274.094 137.109 273.844 135.231C273.556 133.087 274.109 130.831 274.269 128.622C274.331 127.778 274.728 127.412 275.569 127.45C276.406 127.487 276.656 128.012 276.591 128.709C276.387 130.9 277.337 133.078 277.016 135.162C276.572 138.053 276.987 140.9 276.703 144.1C279.175 141.825 281.447 139.766 283.684 137.669C285.087 136.353 286.437 134.978 287.828 133.647C288.3 133.197 288.578 132.747 288.541 132.028C288.428 129.897 288.387 127.762 288.369 125.628C288.362 124.884 288.269 124.644 287.409 124.887C286.341 125.191 285.197 125.231 283.862 125.416C284.4 124.15 284.862 123.122 285.275 122.072C285.587 121.278 286.284 121.119 286.975 120.897C289.784 119.994 292.594 119.081 295.4 118.172C295.741 118.062 296.347 118.256 296.169 117.534C296.003 116.85 295.572 116.816 294.978 117.009C293.062 117.628 291.137 118.209 289.216 118.809C289.019 118.872 288.781 119.072 288.647 119.012C288.253 118.847 287.737 119.731 287.506 118.934C287.328 118.319 288.016 118.353 288.337 118.244C290.047 117.659 291.781 117.141 293.503 116.6C293.897 116.475 294.297 116.359 294.681 116.212C295.075 116.062 295.5 115.881 295.312 115.331C295.097 114.703 294.637 115.022 294.275 115.137C292.347 115.753 290.425 116.394 288.497 117.009C288.006 117.166 287.5 117.259 286.953 117.397C286.481 115.212 286.028 113.087 285.559 110.969C285.397 110.231 285.2 109.831 284.156 109.934C281.262 110.222 278.356 110.512 275.197 110.331C278.15 108.491 281.097 107.147 284.253 106.216C286.681 105.5 289.075 104.662 291.469 103.825C291.981 103.647 293.012 103.731 292.772 102.872C292.559 102.109 291.766 102.562 291.191 102.712C289.644 103.109 288.081 103.45 286.541 103.872C286.025 104.012 285.541 104.116 285.012 104C285.512 103.128 286.856 103.619 287.247 102.594C287.653 102.628 288.069 102.684 288.381 102.122C287.828 102.034 287.422 102.059 287.056 102.362C287.584 101.437 288.744 100.525 289.903 100.341C290.366 100.269 290.647 100.084 290.956 99.8062C291.197 99.5906 291.666 99.5968 291.509 99.0593C291.366 98.5687 291.053 98.3968 290.578 98.4437C290.075 98.4937 289.575 98.5531 289.072 98.6093C288.884 97.575 289.916 97.3625 290.241 96.6906C289.822 96.1843 289.259 96.4562 288.781 96.4093C287.431 96.275 286.969 95.6124 287.409 94.375C287.522 94.0625 287.597 93.8687 288.031 93.8906C289.762 93.9781 291.191 93.5281 291.787 91.6437C291.95 91.1281 294.441 90.9812 295.037 91.3968C295.7 91.8593 296.116 93.6218 295.531 94.0562C293.766 95.3625 294.997 95.5343 296.116 95.8156C296.259 95.8531 296.387 95.9531 296.503 96.0156C296.597 96.4718 296.166 96.4968 295.984 96.7156C295.791 96.9468 295.456 97.125 295.566 97.4843C295.687 97.8812 296.075 97.725 296.359 97.7843C300.772 98.6937 305.234 99.325 309.697 99.9218C311.806 100.203 311.844 100.141 311.781 98.0781C311.431 86.6281 311.619 75.175 311.719 63.7218C311.731 62.2656 311.15 61.9906 309.987 61.925C302.562 61.4875 295.137 61.05 287.716 60.5781C284.709 60.3875 281.706 60.1187 278.703 59.8593C277.847 59.7843 276.503 58.1562 276.569 57.3781C276.6 57.0187 276.841 57.0062 277.094 56.9437C287.328 54.4468 297.084 50.5281 306.931 46.8843C311.3 45.2656 315.634 43.5531 319.984 41.8843V84.6875C318.128 84.6406 317.391 85.6124 318.222 87.2843C318.694 88.2343 318.697 88.7374 317.928 89.5281C317.119 90.3562 316.694 91.65 317.584 92.6187C318.297 93.3937 318.059 93.8062 317.6 94.4437C315.516 97.35 313.45 100.275 311.381 103.191C311.187 103.391 311.022 103.428 310.912 103.112C310.794 102.341 311.762 101.866 311.503 101.006C309.281 101.925 307.109 102.875 304.894 103.709C304.075 104.019 304.103 104.328 304.353 105.056C304.919 106.687 305.341 108.366 305.875 110.219C307.081 108.403 308.187 106.691 309.341 105.009C309.809 104.328 310.031 103.425 310.928 103.097C311.347 103.534 310.884 103.812 310.716 104.116C309.684 105.966 308.522 107.731 307.278 109.444C306.844 110.044 306.409 110.659 306.275 111.512C307.209 111.381 308.034 111.319 308.834 111.144C311.519 110.556 311.809 110.178 311.825 107.456C311.828 106.731 311.819 106.006 311.816 105.284C312.019 105.078 312.066 104.847 311.997 104.691C312.031 105.128 312.094 105.681 312.119 106.231C312.162 107.216 311.784 108.653 312.294 109.106C313.919 110.559 312.053 110.478 311.656 111.028C310.303 111.7 308.847 112.006 307.366 112.225C306.125 112.409 305.106 112.85 304.987 114.403C305.303 114.372 305.6 114.428 305.781 114.312C308.591 112.494 310.106 114 311.275 116.419C311.541 116.787 311.481 117.128 311.191 117.45C310.709 117.612 310.237 117.834 309.741 117.931C308.628 118.147 308.447 118.634 308.925 119.678C309.797 121.587 310.519 123.566 311.3 125.512C311.291 125.834 311.406 126.075 311.775 126.197C311.775 124.009 311.775 121.856 311.775 119.703C311.775 119.6 311.775 119.494 311.775 119.391C311.931 118.841 311.903 118.291 311.787 117.737L311.794 117.597C314.669 116.491 317.369 115.041 319.984 113.431V140.3C319.081 140.694 318.184 141.097 317.275 141.478C316.125 141.959 315.578 142.041 314.594 141.912C316.316 140.778 316.419 139.784 314.925 138.784C314.359 138.406 313.794 138.35 313.156 138.625C311.666 139.266 310.828 140.334 310.903 141.994C310.944 142.903 310.787 143.487 309.722 143.794C307.684 144.378 305.706 145.166 303.712 145.891C299.191 147.531 294.509 148.712 290.072 150.597C288.884 150.628 288.453 150.194 288.506 148.878C288.697 144.181 288.731 139.478 288.8 134.778C288.803 134.481 289.056 134.05 288.447 133.834C288.078 134.622 287.097 134.906 286.837 135.825C283.575 138.878 280.322 141.944 277.041 144.978C276.528 145.453 276.587 145.972 276.625 146.541C276.634 150.047 276.609 153.553 276.666 157.059C276.694 158.697 276.45 160.353 276.878 161.975C276.85 162.553 276.922 163.137 276.637 163.756C285.816 163.756 294.831 163.747 303.844 163.772C304.725 163.772 305.216 163.478 305.322 162.6C306.316 161.6 306.266 160.072 307.162 158.997C307.553 158.528 307.519 157.934 306.703 157.766C306.15 157.65 305.594 157.406 305.044 157.422C297.569 157.625 290.084 157.141 282.612 157.653C282.337 157.672 282.306 157.437 282.256 157.241C290.35 157.241 298.441 157.222 306.534 157.256C308.594 157.266 310.634 157.369 312.366 155.962C313.287 156.7 314.166 157.472 314.95 158.366C316.237 159.828 317.341 159.769 318.641 158.328C319.034 157.894 319.262 157.237 319.984 157.175V160.3C318.997 161.647 317.634 162.178 316.006 162.137C314.859 162.169 313.716 162.203 312.569 162.234C311.956 162.544 311.141 162.259 310.641 162.872C310.384 163.187 309.697 163.291 310.197 164.006C310.656 164.666 311.128 164.437 311.459 164.084C311.925 163.591 312.441 163.647 313.006 163.631C314.441 163.594 315.872 163.516 317.306 163.456C317.672 163.456 318.041 163.456 318.406 163.453C318.931 163.756 319.456 164.056 319.981 164.359V165.922C318.919 166.134 318.875 167.359 318.081 167.837C315.381 167.834 312.681 167.828 309.984 167.828C307.322 167.828 304.662 167.841 302 167.847C302.009 168.009 302.019 168.172 302.025 168.331H317.109C317.256 168.369 317.528 168.397 317.534 168.447C317.584 169.031 317.022 168.85 316.753 168.972C315.719 169.45 314.553 169.859 314.337 171.106C314.119 172.375 315.587 172.387 316.162 173.094C311.906 173.106 307.653 173.112 303.397 173.141C303.087 173.141 302.581 172.9 302.503 173.437C302.419 174.009 302.887 173.912 303.247 173.887C308.275 173.528 313.312 173.887 318.341 173.669C319.156 173.462 319.428 172.666 319.978 172.172V173.422C317.912 175.578 317.412 177.869 319.241 180.466C319.809 181.275 319.762 180.456 319.978 180.294V181.856C319.147 181.759 318.506 181.537 318.475 180.475C318.447 179.584 317.847 178.875 317.447 178.081C316.253 179.119 315.881 179.634 316.237 180.75C316.647 182.034 316.016 182.131 315.084 182.222C314.628 182.266 314.162 182.403 313.737 182.581C312.378 183.153 312.006 184.528 313.241 185.178C315.269 186.247 315.797 187.306 314.681 189.409C314.181 190.353 315.275 191.166 316.037 191.8C316.472 192.159 317.112 192.397 317.444 191.947C318.381 190.681 319.953 189.678 319.419 187.691C319.303 187.262 319.119 186.594 319.978 186.544V194.041C319.028 194.122 318.437 194.825 317.766 195.359C317.394 195.653 317.281 196.241 317.922 196.219C318.828 196.191 319.247 196.962 319.975 197.162V203.1C318.478 203.694 317.359 204.681 316.506 206.194C317.828 206.3 318.931 206.128 319.975 206.537V231.531C319.612 231.522 319.241 231.556 318.887 231.494C310.078 229.947 301.272 228.387 292.462 226.831C292.456 225.209 292.8 223.634 293.275 222.109C293.994 219.8 295.791 218.262 298.031 218.184C300.116 218.112 300.244 217.25 300.306 215.678C300.412 212.875 301.381 210.503 304.234 209.394C304.997 209.097 305.831 208.987 306.616 208.744C306.753 208.7 307.284 208.762 307.028 208.403C306.106 207.103 306.609 205.737 306.778 204.403C306.872 203.666 306.528 203.375 305.953 203.119C304.056 202.281 302.075 201.997 300.019 202.137C299.997 199.553 299.994 196.966 299.931 194.381C299.919 193.912 300.328 193.109 299.372 193.069C298.353 193.022 298.784 193.866 298.772 194.319C298.7 197.262 298.684 200.209 298.65 203.156C296.809 203.603 296.45 205.244 295.819 206.666C294.631 206.431 293.428 206.472 292.241 206.6C288.969 206.947 286.991 208.503 286.262 211.197C285.85 212.725 285.881 214.284 285.9 215.844C285.909 216.506 285.803 216.791 285.003 216.894C280.909 217.409 277.456 219.084 275.281 222.778C274.897 223.431 274.503 223.609 273.787 223.475C272.109 223.162 270.412 222.934 268.728 222.65C263.581 221.778 258.437 220.872 253.284 220.022C246.387 218.884 239.462 217.922 232.594 216.641C223.534 214.953 214.516 213.037 205.484 211.203C202.272 210.55 198.991 210.209 195.809 209.534C192.647 208.862 189.541 208.012 186.297 207.716C185.747 207.666 185.019 207.544 184.391 207.119C177.987 202.784 171.544 198.512 165.087 194.259C164.322 193.753 163.747 193.178 163.35 192.347C162.031 189.581 160.616 186.862 159.341 184.075C158.872 183.05 158.409 183.031 157.541 183.547C156.519 184.156 155.409 184.619 154.35 185.166C152.012 186.374 150.978 188.283 151.247 190.894C151.309 191.516 151.334 192.141 151.434 192.756C152.091 196.759 152.103 196.819 156.172 196.306C157.744 196.109 158.975 196.506 160.203 197.441C163.387 199.866 166.628 202.212 169.844 204.591C170.759 205.269 171.691 206 172.834 206.159C181.194 207.306 189.4 209.25 197.656 210.947C209.597 213.4 221.522 215.937 233.475 218.328C238.941 219.422 244.453 220.294 249.959 221.187C255.631 222.109 261.325 222.894 266.994 223.819C272.812 224.769 278.616 225.797 284.419 226.825C292.3 228.222 300.175 229.669 308.059 231.069C312.025 231.772 316 232.419 319.969 233.091C319.969 241.525 319.956 249.962 319.991 258.397C319.991 259.178 319.816 259.484 319.031 259.337C318.881 259.309 318.719 259.334 318.562 259.334C212.853 259.334 107.147 259.334 1.43749 259.362C0.265615 259.362 -0.0562595 259.106 -9.48133e-06 257.925C0.109366 255.691 0.0312405 253.447 0.0312405 251.209C0.171865 251.156 0.31249 251.053 0.45624 251.053C10.0281 251.072 19.6031 251.116 29.175 251.112C30.6969 251.112 32.2187 250.906 33.7375 250.797C33.725 250.725 33.7156 250.656 33.7031 250.584H0.0374905V232.15C6.11874 232.125 12.1969 232.094 18.2781 232.075C29.8094 232.041 41.3437 232.016 52.875 231.987C56.2375 231.987 59.5969 231.987 63.3781 231.987C60.825 230.037 58.6531 228.269 56.3687 226.659C54 224.994 51.6687 223.097 48.8312 222.409C47.2469 222.025 47.1062 221.278 47.0562 220.497C49.6219 220.497 52.0969 220.494 54.5719 220.497C67.725 220.522 80.8812 220.547 94.0344 220.572C94.0437 224.106 94.0719 227.644 94.05 231.178C94.0437 232.012 94.225 232.375 95.1656 232.372C100.522 232.341 105.878 232.375 111.234 232.372C111.672 232.372 112.266 232.537 112.431 231.941C112.559 231.475 112.284 231.006 111.95 230.681C111.031 229.787 110.069 228.934 109.066 228.016C111.519 228.137 113.853 228.259 116.187 228.369C116.822 228.4 117.016 228.206 116.969 227.456C116.909 226.459 116.35 225.997 115.672 225.487C113.969 224.212 112.291 222.906 110.6 221.612C111.887 221.25 113.012 221.259 114.137 221.25C116.809 221.228 116.831 221.225 116.866 218.537C116.875 217.769 116.9 217.347 117.925 217.356C122.55 217.397 127.175 217.322 131.8 217.294C131.816 217.294 131.831 217.375 131.847 217.416C131.844 217.372 131.841 217.325 131.837 217.269C131.016 217.172 130.187 217.109 129.372 216.969C125.587 216.316 121.728 216.191 117.981 215.25C117.003 215.003 116.753 214.55 116.747 213.644C116.734 212.197 116.619 210.75 116.547 209.303C116.522 207.537 117.05 205.484 116.319 204.087C115.594 202.703 113.622 201.953 112.169 200.972C109.266 199.009 106.344 197.075 103.162 194.95C110.541 193.641 117.659 194.666 124.753 194.266C124.794 193.487 123.931 193.112 123.847 192.194C125.097 192.519 126.297 192.806 127.481 193.144C130.994 194.141 134.472 193.509 137.953 192.959C139.019 192.791 139.275 192.347 138.597 191.328C137.884 190.256 137.409 189.031 136.831 187.872C136.95 187.459 137.206 187.562 137.547 187.587C139.691 187.756 141.837 187.869 144.447 188.028C140.516 186.566 137.134 185.009 133.744 183.469C132.816 183.241 132.294 182.644 131.959 181.75C131.325 180.056 130.581 178.403 129.912 176.722C129.706 176.206 129.344 175.884 128.912 175.575C124.194 172.191 119.509 168.759 114.756 165.428C113.212 164.347 113.594 162.675 113.175 161.262C112.781 159.934 112.678 158.519 112.481 157.137C112.391 156.512 111.969 156.144 111.569 155.741C109.784 153.931 108 152.122 106.216 150.312C108.991 150.003 109.781 148.087 110.134 145.672C110.65 142.144 111.328 138.641 111.881 135.119C112.022 134.228 112.503 133.784 113.259 133.422C115.225 132.475 117.337 131.966 119.406 131.359C121.078 130.869 122.856 130.537 124.1 132.416C124.297 132.716 124.8 132.856 125.194 132.972C125.509 133.066 125.978 133.244 126.156 132.812C126.316 132.428 126.25 132.041 125.734 131.803C125.016 131.472 124.437 130.934 123.672 129.956C125.1 130.569 125.847 131.322 126.628 132.069C127.516 132.919 128.547 133.112 129.806 132.766C127.316 131.066 124.931 129.434 122.547 127.806C122.978 127.203 123.569 127.55 124.1 127.547C125.909 129.331 128.081 130.659 130.05 132.244C130.859 132.897 131.819 133.209 133.2 132.869C130.416 131.041 128.125 128.956 125.409 127.456C125.703 126.85 126.2 127.2 126.622 127.194C127.137 127.759 127.931 127.622 128.584 128.162C130.728 129.934 133.103 131.431 135.419 132.994C135.775 133.234 136.306 133.516 136.722 133.172C137.106 132.853 136.106 132.584 136.556 132.147C137.791 132.434 138.703 134.072 140.262 133.037C140.231 132.6 139.85 132.478 139.556 132.309C137.331 131.044 135.084 129.816 133.253 127.972C132.809 127.525 132.269 127.231 131.647 127.1C132.253 126.331 133.025 126.981 133.706 126.862C136.5 129.566 139.597 131.809 143.228 133.244C142.45 132.066 141.144 131.603 140.103 130.787C138.381 129.437 136.456 128.331 135.044 126.603C135.703 126.491 136.362 126.45 137.025 126.597C138.219 128.697 140.422 129.562 142.316 130.747C143.722 131.625 144.881 132.997 146.694 133.203C147.366 133.278 147.975 133.334 148.244 132.584C148.5 131.869 148.559 131.175 147.734 130.703C145.672 129.528 143.622 128.328 141.566 127.141L141.584 127.162C141.441 126.903 141.184 126.869 140.928 126.834L140.95 126.856C140.744 125.753 141.456 124.931 141.891 123.931C137.809 123.062 133.737 122.453 129.659 121.881C128.831 121.766 127.919 121.844 128.172 120.537C128.372 119.497 128.125 118.112 129.884 118.319C131.934 118.556 133.991 118.794 136.025 119.131C139.228 119.662 142.412 120.316 145.616 120.831C146.431 120.962 147.25 121.059 148.122 120.481C149.497 119.572 150.844 120.341 150.972 121.903C150.941 122.347 150.959 123.197 151.362 122.972C152.503 122.337 152.678 123.437 153.241 123.778C153.959 124.216 154.403 124.55 155.072 123.516C155.928 122.191 157.203 121.172 158.491 120.2C159.344 119.556 160.575 119.287 160.922 118.056C161.078 117.459 161.303 116.869 161.372 116.259C161.509 115.072 161.991 115.312 162.609 115.897C162.856 116.472 163.297 116.866 163.881 117.375C164.097 116.253 164.637 115.45 165.075 114.594C165.541 113.684 166.584 113.181 166.797 112.103C167.716 111.184 168.634 110.266 169.556 109.344C170.078 108.95 170.562 108.487 171.131 108.175C172.259 107.553 172.119 106.919 171.262 106.2C170.937 105.625 170.609 105.047 170.284 104.472C171.244 103.131 172.409 104.106 173.884 104.35C172.3 101.469 170.675 99.1593 167.756 98.0562C165.844 97.5812 165.691 97.6937 165.662 99.575C165.647 100.612 165.616 101.65 165.591 102.691C163.756 102.309 161.884 102.356 160.028 102.234C158.625 102.141 157.372 103.866 157.85 105.181C157.962 105.487 158.162 105.553 158.425 105.584C160.312 105.806 162.203 106.028 164.25 106.269C163.95 105.15 162.937 104.691 162.781 103.747C162.856 103.691 162.925 103.634 162.994 103.569C163.569 104.072 164.147 104.572 164.722 105.075C165.191 105.959 166.384 106.662 165.425 107.9C162.659 107.45 159.962 106.466 156.9 106.591C157.537 107.709 158.444 107.831 159.253 108.119C160.878 108.694 162.628 108.881 164.181 109.691C160.822 113.053 157.175 116.041 153.056 118.437C152.241 118.912 151.709 118.897 151.116 118.1C150.494 117.266 149.178 117.047 148.647 116.481C147.356 115.106 144.944 114.809 144.406 113.297C143.072 109.547 140 109.55 137.044 109.044C131.387 108.075 125.731 107.109 120.069 106.175C119.159 106.025 118.853 105.528 118.881 104.697C118.887 104.544 118.931 104.391 118.947 104.234C119.341 100.844 119.506 100.775 122.797 101.419C127.012 102.244 131.291 102.8 135.469 103.775C138.006 104.366 140.716 104.131 143.1 105.384C143.669 105.684 143.981 105.097 144.222 104.919C145.041 104.316 145.712 104.159 146.803 104.153C147.753 104.147 148.95 104.478 149.856 104.003C151.419 103.184 152.416 103.928 153.387 104.959C153.85 105.45 154.281 106.147 155.019 105.959C155.747 105.775 155.544 104.95 155.678 104.375C156.091 102.609 156.384 100.803 156.972 99.0968C157.437 97.7499 156.825 97.5874 155.803 97.5281C153.675 97.4031 151.547 97.2406 149.419 97.1468C148.625 97.1124 148.309 97.0375 148.656 96.0781C149.428 93.9468 150 91.7437 150.719 89.5937C150.997 88.7625 151.431 87.9656 152.466 87.7625C151.275 86.6562 152.256 83.7468 154.1 82.6687C153.234 81.6906 153.875 78.8593 155.259 78.1124C155.859 77.7906 156.103 77.7718 155.425 77.2999C154.862 76.9093 155.337 76.4593 155.478 76.0718C155.844 75.0624 156.022 73.9468 156.95 73.2281C157.141 73.2124 157.331 73.1968 157.525 73.1781C158.131 74.4093 158.956 74.1156 160.075 73.8187C162.128 73.275 164.272 73.075 166.381 72.7312C168.6 72.5468 170.816 72.2937 173.037 72.1968C176.825 72.0312 180.619 71.9687 184.409 71.8531C184.734 71.8437 185.237 72.0218 185.275 71.4875C185.306 71.0218 185.125 70.5156 184.628 70.3625C184.244 70.2437 183.803 70.2781 183.387 70.2999C179.344 70.5093 175.291 70.6156 171.262 70.9937C169.122 71.1937 166.916 71.1 164.841 71.8624C163.481 71.9781 162.122 72.0906 160.762 72.2062C160.291 72.1968 159.819 72.1875 159.347 72.1812L159.362 72.1937C159.047 71.0437 159.541 70.4531 160.669 70.2593C161.631 70.0937 162.578 69.8374 163.544 69.7031C166.091 69.3406 168.631 68.95 171.106 68.2156C171.2 68.2531 171.297 68.2531 171.394 68.2156C171.816 68.6281 172.206 68.4656 172.587 68.1499C176.037 67.9687 179.491 67.7874 182.941 67.6031C182.934 67.4781 182.931 67.3531 182.925 67.225C180.041 67.1218 177.153 67.0968 174.266 67.3406C173.75 67.3843 173.234 67.4468 172.716 67.4687C171.7 67.5156 170.425 67.9218 169.753 67.4562C169.216 67.0843 169.412 65.6468 169.272 64.6125C167.869 65.0312 166.65 65.8624 165.184 66.0625C163.837 66.2437 163.087 65.95 162.666 64.5125C162.184 62.8687 161.362 61.325 160.691 59.7375C160.403 59.0593 159.794 59.3531 159.331 59.3375C157.347 59.2718 157.347 59.2906 157.806 57.3343C158.006 56.4875 158.197 55.6374 158.431 54.6156C155.256 54.7218 152.219 55.5468 148.834 55.1093C150.031 53.8062 151.091 52.6562 152.15 51.5031C152.366 51.8718 152.641 51.7625 152.953 51.6406C154.494 51.0312 156.031 50.4187 157.584 49.8468C158.694 49.4406 159.487 48.7875 160.156 47.7531C161.019 46.4187 161.819 44.9125 164 45.1656C164.984 45.2781 164.119 44.1375 164.269 43.5843C164.4 43.0937 164.234 42.6312 163.516 42.85C161.978 43.3156 160.669 44.0812 159.953 45.5937C159.322 46.9218 158.503 46.9843 157.503 45.7562C157.191 45.4093 157.022 45.6687 156.85 45.9125L156.859 45.8625C155.931 46.3718 155.141 45.9906 154.422 45.4312C151.312 43.0156 150.881 35.8968 153.756 33.2593C154.369 32.6968 155.147 31.2625 156.297 32.8031C156.428 32.9812 156.775 32.5843 156.891 31.9218C157.312 29.4781 157.684 27.025 158.122 24.5843C159.287 18.0843 160.853 11.7718 166.219 7.21558C167.822 5.85308 169.462 4.57495 171.466 3.77808C169.859 6.71558 168.825 9.7562 168.753 13.0781C168.747 13.425 168.587 13.6906 168.341 13.8812C164.3 16.9468 162.991 21.5187 161.7 26.0656C161.025 28.4468 160.419 30.8625 160.178 33.5093C160.687 33.3281 161.253 32.7218 161.662 33.1468C162.112 33.6156 161.503 34.1531 161.366 34.6625C161.137 35.4968 160.881 36.3218 160.512 37.575C162.15 36.2093 163.153 34.8468 164.141 33.4875C168.566 27.3906 172.828 21.1843 176.637 14.675C179.953 9.01245 184.878 6.05308 191.541 6.25308C191.866 6.26245 192.287 6.1062 192.531 6.65308C191.306 7.2687 190.097 7.9312 189.019 8.79058C187.7 9.84058 186.481 10.9781 186.312 12.8031C186.269 13.2687 186.047 13.5781 185.644 13.7687C181.456 15.7593 179.034 19.4874 176.441 23.0624C174.244 26.0906 171.975 29.0624 169.744 32.0656C169.6 32.2562 169.344 32.4218 169.516 32.8718C175.547 31.8031 179.619 34.9843 183.1 39.3812C182.878 39.8062 182.472 39.65 182.134 39.6781C177.878 40.0156 173.722 40.8656 169.653 42.1437C168.819 42.4062 168 42.7218 167.181 43.0281C166.819 43.1625 166.481 43.3906 166.684 43.8343C166.875 44.25 167.206 43.9812 167.478 43.8812C167.722 43.7906 167.962 43.6937 168.206 43.6031C173.622 41.5562 179.234 40.525 185.006 40.2937C185.416 40.8 185.822 41.3093 186.231 41.8187C185.634 42.4906 184.909 41.9375 184.253 41.9937C179.169 42.4312 174.2 43.3781 169.319 44.8968C168.034 45.2968 168.05 45.7812 168.562 46.7437C169.212 47.9562 170.197 47.5187 170.944 47.0968C172.847 46.0281 174.956 45.7468 177.019 45.3187C180.612 44.5749 184.262 44.1625 187.909 43.7625C188.491 44.2812 189.137 44.7374 189.45 45.4968C186.228 45.5312 183.062 46.0312 179.906 46.6093C176.75 47.1875 173.572 47.6749 170.556 48.8437C170.172 48.9937 169.678 49.0875 169.844 49.6625C170.012 50.2468 170.422 50.1062 170.841 49.9062C172.969 48.8968 175.269 48.4531 177.537 47.9249C181.566 46.9874 185.603 46.1093 189.775 46.1812C191.075 46.7312 191.653 48.0062 192.556 48.9562C191.228 49.0968 189.897 49.2343 188.569 49.375C182.728 49.9875 177.037 51.2781 171.478 53.1687C171.025 53.3218 170.691 53.4531 170.859 54.0062C171 54.475 171.188 54.9125 171.806 54.8093C172.059 54.7687 172.309 54.6843 172.556 54.6156C177.937 53.0968 183.35 51.7625 188.922 51.0781C190.541 50.8781 192.266 51.1562 193.797 50.3312L193.806 50.3468ZM291.487 130.556C291.081 130.775 290.716 131.037 290.5 131.466C289.962 131.637 289.684 132.031 289.278 132.706C290.009 132.341 290.403 132.056 290.641 131.597C291.178 131.55 291.437 131.128 291.753 130.781C291.944 130.594 292.134 130.406 292.328 130.219C293.116 129.512 293.881 128.791 294.403 127.85C294.597 127.831 294.7 127.728 294.712 127.531C297.166 125.2 298.991 122.375 300.922 119.631C302.281 118.091 303.356 116.375 304.359 114.609C304.237 114.531 304.119 114.453 303.997 114.375C302.897 116.041 301.8 117.703 300.7 119.369C298.612 122.031 296.525 124.694 294.441 127.356C294.331 127.378 294.262 127.441 294.234 127.55C293.431 128.259 292.697 129.028 292.131 129.944C291.919 130.147 291.703 130.35 291.491 130.556H291.487ZM164.019 55.3562C164.569 55.0625 165.112 54.7593 165.672 54.4812C166.178 54.2281 166.362 53.9656 165.994 53.4C165.134 52.0812 164.741 50.5499 164.231 49.0812C163.775 47.7718 163.034 47.4875 161.859 48.1343C161.209 48.3156 160.416 48.4906 160.775 49.4031C161.547 51.3687 162.416 53.2937 163.266 55.225C163.419 55.575 163.669 55.9125 164.025 55.3562H164.019ZM202.197 148.709C202.225 148.775 202.253 148.837 202.284 148.903C202.253 148.891 202.2 148.881 202.191 148.859C202.178 148.819 202.191 148.769 202.191 148.722C199.109 141.962 194.875 135.966 190.059 130.35C189.681 129.909 189.4 129.412 188.756 129.353C188.712 129.309 188.666 129.262 188.622 129.219C188.662 129.266 188.703 129.316 188.747 129.362C188.853 129.797 188.884 130.2 189.197 130.622C191.684 133.978 194.116 137.375 196.534 140.778C198.416 143.425 200.009 146.278 202.197 148.706V148.709ZM168.747 94.9656H168.737C169.616 94.9593 170.503 95.0312 171.372 94.9312C174.825 94.5375 178.291 94.3593 181.762 94.3218C185.45 94.2812 189.137 94.3062 192.822 94.25C193.162 94.2437 193.919 94.6468 193.862 93.8125C193.819 93.1906 193.294 93.1187 192.691 93.1281C185.219 93.2343 177.747 93.2781 170.275 93.4031C168.697 93.4281 167.094 93.4625 165.559 93.9562C165.406 93.9656 165.253 93.9781 165.1 93.9875C164.812 93.7781 164.55 93.825 164.309 94.0656C163.316 94.3031 163.244 93.5687 163.078 92.9156C162.875 92.1187 163.394 92.0031 163.984 91.8062C165.934 91.1531 168.041 91.4218 169.975 90.725C175.359 90.3687 180.737 89.8593 186.144 90.0249C187.959 90.0812 189.772 90.1687 191.587 90.1875C191.975 90.1906 192.687 90.4906 192.687 89.7718C192.687 89.2499 192.4 88.6406 191.703 88.5406C191.397 88.4968 191.081 88.5156 190.769 88.5187C184.694 88.5531 178.628 88.7656 172.575 89.2875C171.669 89.3656 170.681 89.0937 169.859 89.7281C169.409 89.5906 168.962 89.5656 168.484 89.6187C167.047 89.7749 165.6 89.8593 164.162 90.0031C163.506 90.0687 162.944 89.8718 162.906 89.2093C162.869 88.5687 163.494 88.5093 164.022 88.4156C165.487 88.1625 166.947 87.8624 168.409 87.5843C175.616 87.0156 182.831 86.6749 190.066 86.8531C190.516 86.8656 191.35 87.275 191.403 86.4C191.447 85.6437 190.912 85.2687 190.059 85.2812C184.447 85.3562 178.825 85.1468 173.231 85.7687C171.387 85.9718 169.497 85.9125 167.712 86.5593C166.372 86.6749 165.031 86.7999 163.691 86.9093C161.559 87.0822 160.7 88.227 161.112 90.3437C161.212 90.85 161.253 91.3687 161.322 91.8843C161.309 92.1906 161.425 92.6625 161.269 92.7812C159.722 93.9656 160.05 95.8531 159.375 97.4906C160.284 97.4906 161.106 97.5062 161.928 97.4843C162.775 97.4625 162.794 97.4406 162.575 96.5343C162.491 96.1875 162.762 96.3343 162.866 96.2781C163.162 96.1156 163.612 96.225 163.737 95.7687C164.731 95.4562 165.75 95.3031 166.791 95.2593C167.466 95.3406 168.141 95.4062 168.744 94.9812L168.747 94.9656ZM312.269 178.503C311.628 178.244 311.919 177.594 311.703 177.15C311.347 176.419 311.275 175.491 310.55 175.016C309.987 174.647 309.291 174.597 308.594 174.791C307.475 175.106 308.528 176.241 307.794 176.769C307.587 176.637 307.384 176.494 307.166 176.375C305.334 175.372 304.278 175.772 303.712 177.728C303.587 178.162 303.491 178.516 302.997 178.609C302.728 178.659 302.478 178.772 302.569 179.112C302.65 179.431 302.95 179.406 303.197 179.434C304.022 179.528 304.844 179.653 305.669 179.697C306.419 179.737 307.072 179.737 306.634 180.812C306.506 181.128 306.556 181.534 306.594 181.894C306.681 182.731 306.756 183.631 307.878 183.716C308.8 183.784 309.909 184.225 310.131 182.662C310.209 182.119 310.709 181.816 311.262 181.728C312.419 181.547 312.756 180.925 312.303 179.859C312.181 179.578 312.209 179.366 312.525 179.25C313.641 179.262 314.859 179.722 316.066 178.503H312.269ZM274.019 154.037C274.647 151.941 274.466 149.831 274.112 147.722C274.075 147.759 274.041 147.794 274.003 147.831C271.731 150.462 269.031 152.65 266.553 155.069C266.334 155.281 265.928 155.484 265.922 155.703C265.85 157.741 264.137 158.616 263.031 159.922C262.391 160.678 261.884 160.631 261.456 159.731C259.369 163.131 256.603 165.897 254.337 169.044L254.381 169.025C254.284 169.125 254.187 169.225 254.087 169.322C252.637 171.344 251.156 173.344 249.741 175.394C248.187 177.647 248.2 177.681 250.291 179.481C251.747 180.734 253.147 182.072 254.972 183.241C254.9 181.847 254.844 180.766 254.787 179.681C255.047 179.669 255.306 179.647 255.566 179.647C267.525 179.631 279.487 179.619 291.447 179.591C292.147 179.591 293.034 179.881 293.362 178.697C292.709 178.697 292.141 178.697 291.569 178.697C282.937 178.706 274.303 178.719 265.672 178.719C263.7 178.719 261.725 178.672 259.753 178.644C260.091 177.128 259.428 175.537 260.094 174.044C261.344 174.044 262.591 174.053 263.841 174.05C274.359 174.019 284.875 173.991 295.394 173.941C296.022 173.941 296.856 174.197 297.159 173.162C286.616 172.972 276.156 173.325 265.694 173.331C265.446 170.404 266.747 168.89 269.597 168.787C269.75 168.781 269.903 168.762 270.059 168.753C271.128 169.05 272.225 168.984 273.312 168.972C279.544 168.891 285.775 168.769 292.006 168.691C294.825 168.656 297.644 168.684 300.462 168.684C300.462 168.553 300.459 168.422 300.456 168.291H270.678C270.656 167.203 270.662 166.116 270.606 165.031C270.572 164.316 270.794 164.056 271.562 164.025C274.153 163.925 274.15 163.891 274.197 161.253C274.209 160.581 274.291 159.906 274.262 159.237C274.191 157.497 274.594 155.734 274.022 154.016L274.012 154.044L274.019 154.037ZM160.05 144.969C160.506 144.594 161.05 144.794 161.553 144.737C165.806 144.284 170.072 144.353 174.337 144.434C174.722 144.441 175.306 144.616 175.428 144.144C175.534 143.737 175.397 143.191 175.194 142.797C174.897 142.225 174.262 142.475 173.778 142.478C167.847 142.519 161.916 142.391 155.994 142.834C155.412 142.878 154.609 142.644 154.753 143.7C154.859 144.484 154.934 145.25 156.116 145.125C157.406 144.987 158.712 145.028 160.012 144.994C158.731 145.531 157.362 145.094 156.031 145.391C154.503 145.728 155.116 146.747 155.112 147.55C155.112 148.569 155.85 148.25 156.459 148.2C158.475 148.037 160.491 147.916 162.509 147.775C166.547 147.497 170.594 147.425 174.641 147.372C176.244 147.35 176.378 147.031 175.919 145.503C175.628 144.541 174.95 144.562 174.209 144.584C169.491 144.712 164.769 144.844 160.05 144.975V144.969ZM162.359 81.9031C160.48 81.7427 159.705 82.5916 160.034 84.45C160.078 84.7 160.253 84.9343 160.272 85.1812C160.328 85.9343 160.644 85.8843 161.3 85.7531C163.509 85.3031 165.744 84.9874 167.972 84.6187C175.466 83.7906 182.984 83.8437 190.516 84.0593C190.425 82.3562 189.547 81.7406 187.881 81.7812C184.559 81.8656 181.231 81.8062 177.906 81.8062C181.312 81.6156 184.722 81.6312 188.131 81.5937C188.556 81.5906 189.347 81.9593 189.356 81.125C189.362 80.4593 189.034 79.8062 188.141 79.8156C187.725 79.8218 187.309 79.7749 186.894 79.7843C181.134 79.9281 175.359 79.8468 169.634 80.6499C167.2 80.9937 164.7 80.9937 162.362 81.8968L162.359 81.9031ZM160.553 75.6031C158.453 75.6781 158.447 75.6812 158.772 77.7999C158.875 78.4624 159.028 79.1156 159.166 79.7718C159.322 80.5187 159.616 80.7562 160.453 80.4406C161.503 80.0437 162.647 79.9031 163.75 79.65C167.381 79.1656 171 78.4937 174.675 78.4343C178.578 78.3687 182.481 78.4156 186.381 78.3875C186.922 78.3843 187.7 78.6718 187.953 78.1093C188.237 77.4781 187.659 76.8437 187.362 76.2562C187.072 75.6843 186.459 75.8593 185.956 75.8468C182.466 75.7437 178.997 76.1625 175.516 76.2406C173.444 76.2875 171.394 77.4843 169.297 76.3875C167.719 77.5062 165.803 76.075 164.197 77.0625C163.928 77.2281 163.537 77.1249 163.512 76.7062C163.494 76.35 163.828 76.3906 164.078 76.3531C164.844 76.2437 165.606 76.075 166.378 76.0125C172.706 75.4968 179.05 75.4625 185.394 75.3718C185.847 75.3656 186.728 75.825 186.694 74.8968C186.666 74.125 186.456 73.1749 185.272 73.2124C184.491 73.2374 183.709 73.2093 182.931 73.2656C177.959 73.6218 172.981 73.8999 168.025 74.3999C165.522 74.6531 162.981 74.8281 160.553 75.6062V75.6031ZM309.084 187.825C309.1 188.581 308.906 189.253 308.356 189.809C307.198 190.98 307.108 192.224 308.087 193.541C308.303 193.834 308.503 194.137 308.709 194.441C309.669 195.856 310.066 195.922 311.059 194.534C311.653 193.703 312.162 193.25 313.3 193.403C314.591 193.578 315.2 192.687 314.681 191.566C314.184 190.491 313.428 189.537 313.419 188.272C313.416 187.891 313.053 187.741 312.734 187.806C310.897 188.187 310.434 187.087 310.297 185.606C310.297 184.85 310.131 184.325 309.175 184.319C303.459 184.294 297.744 184.225 292.031 184.178C291.575 184.175 291.028 184.081 290.819 184.637C290.5 185.484 289.775 185.512 289.069 185.622C289 185.556 288.928 185.497 288.853 185.444C289.003 185.069 289.597 184.759 289.359 184.384C289.012 183.847 288.312 184.087 287.775 184.091C278.825 184.112 269.875 184.162 260.925 184.2C259.3 184.206 257.672 184.2 255.894 184.2C257.053 185.231 258.156 186.1 259.119 187.103C259.859 187.875 260.641 188.156 261.706 188.15C268.994 188.106 276.281 188.128 283.572 188.128C284.578 188.128 285.584 188.128 286.737 188.128C285.631 189.744 284.653 191.134 283.722 192.553C283.359 193.103 282.937 193.203 282.291 193.197C274.434 193.144 266.578 193.091 258.722 193.153C257.091 193.166 255.362 192.828 253.812 193.634C250.259 195.484 246.728 197.381 242.987 199.362C243.687 199.362 244.156 199.362 244.625 199.362C259.094 199.341 273.566 199.309 288.034 199.297C292.934 199.294 292.934 199.316 292.534 194.375C292.531 194.322 292.519 194.269 292.525 194.219C292.606 193.525 292.291 193.328 291.619 193.366C290.434 193.434 289.25 193.366 288.006 193.041C288.534 191.694 289.209 190.491 289.966 189.316C290.559 188.394 291.291 188.1 292.4 188.087C297.966 188.031 303.537 188.35 309.094 187.828L309.084 187.825ZM251.241 171.878C253.456 168.475 256.387 165.578 258.297 161.956C259.678 161.741 259.791 160.306 260.6 159.537C260.966 159.191 261.153 158.556 260.737 158.319C260.112 157.959 260.134 158.722 259.909 159.072C259.312 160 259.484 161.369 258.272 161.941C258.522 161.1 258.619 160.169 259.053 159.437C259.997 157.853 259.347 156.959 258.103 155.931C250.147 149.353 241.634 143.631 232.503 138.812C220.275 132.359 207.706 126.706 194.541 122.431C193.944 122.237 193.409 122.075 192.634 122.347C194.475 124.4 196.353 126.156 198.25 127.903C202.416 131.747 206.609 135.562 210.581 139.609C211.297 140.337 211.884 140.881 210.759 141.937C208.466 144.087 208.547 144.172 206.006 142.219C205.816 142.075 205.672 141.816 204.931 142C217.794 153.412 231.419 163.497 244.397 174.356C245.272 175.159 246.137 175.975 247.028 176.762C247.4 177.094 247.741 177.3 248.128 176.666C249.125 175.044 250.2 173.469 251.244 171.875L251.241 171.878ZM228.134 206.425C229.05 208.178 229.991 209.897 230.847 211.656C231.241 212.462 231.734 212.744 232.656 212.737C237.959 212.691 243.262 212.747 248.566 212.725C255.328 212.7 262.094 212.619 268.856 212.603C269.728 212.603 269.903 212.219 269.894 211.481C269.875 210.078 269.822 208.666 269.928 207.269C270.012 206.162 269.641 205.887 268.562 205.891C256.072 205.909 243.581 205.878 231.094 205.856C230.103 205.856 229.134 205.962 228.131 206.425H228.134ZM42.1781 244.387C42.8437 244.753 43.3125 244.712 43.7812 244.712C62.1937 244.731 80.6062 244.762 99.0219 244.759C100.669 244.759 102.922 245.544 103.803 244.462C104.631 243.45 104.016 241.278 104.091 239.619C104.131 238.716 104.003 238.384 102.909 238.547C100.344 238.928 97.7437 239.075 95.1594 239.334C87.7312 240.084 80.3031 240.844 72.875 241.6C65.9562 242.306 59.0437 243.037 52.1219 243.709C48.8906 244.022 45.6594 244.366 42.1812 244.384L42.1781 244.387ZM175.256 162.825C170.009 163.112 164.106 163.437 158.2 163.766C157.719 163.794 157.203 163.809 157.309 164.516C157.575 166.25 157.881 167.978 158.125 169.716C158.219 170.394 158.484 170.487 159.156 170.434C165.562 169.909 171.975 169.437 178.384 168.962C180.812 168.781 180.812 168.794 180.322 166.412C179.822 163.981 178.133 162.786 175.256 162.828V162.825ZM171.662 155.487C167.044 155.681 162.437 155.953 157.841 156.394C157.281 156.447 156.206 156.128 156.406 157.428C156.612 158.759 156.778 160.094 156.947 161.431C157.022 162.028 157.228 162.394 157.941 162.294C163.547 161.503 169.187 161.241 174.844 161.109C176.203 161.078 178.184 161.609 178.794 160.569C179.322 159.666 178.328 157.947 178.203 156.569C178.109 155.544 177.647 155.441 176.797 155.469C175.087 155.528 173.372 155.487 171.659 155.487H171.662ZM159.553 151.931C159.553 151.991 159.553 152.05 159.553 152.106C158.878 152.106 158.2 152.153 157.531 152.097C156.381 151.997 155.894 152.3 155.928 153.625C155.962 154.925 156.522 155.053 157.553 154.987C163.928 154.581 170.294 153.95 176.694 154.034C176.997 154.037 177.341 154.112 177.559 153.825C177.787 153.528 176.734 149.244 176.394 149.078C176.266 149.016 176.091 149.037 175.937 149.034C169.537 148.925 163.147 149.219 156.759 149.506C156.156 149.534 155.406 149.5 155.594 150.641C155.747 151.559 155.894 152.078 156.972 151.953C157.822 151.856 158.691 151.934 159.55 151.934L159.553 151.931ZM172.128 137.869C168.631 138.484 165.1 138.309 161.578 138.406C159.553 138.462 157.534 138.631 155.509 138.722C154.541 138.766 154.347 139.269 154.369 140.153C154.391 141.028 154.659 141.247 155.537 141.253C156.647 141.259 157.684 140.931 158.772 140.866C163.606 140.581 168.444 140.525 173.281 140.619C174.625 140.647 175.122 140.416 174.412 139.056C173.962 138.2 174.4 136.894 173.609 136.341C172.772 135.756 171.584 136.244 170.553 136.244C165.456 136.25 160.356 136.169 155.266 136.559C154.603 136.609 154.028 136.559 154.066 137.516C154.1 138.437 154.641 138.481 155.325 138.45C155.897 138.425 156.475 138.494 157.041 138.437C162.059 137.956 167.097 138.05 172.125 137.862L172.128 137.869ZM274.328 138.35C272.953 139.641 271.694 140.794 270.437 141.947C269.831 142.503 269.019 142.831 268.575 143.566C266.722 146.631 265.469 149.991 263.919 153.203C263.525 154.022 264.228 154.45 264.681 154.891C265.241 155.431 265.478 154.709 265.778 154.459C268.45 152.234 270.972 149.847 273.387 147.347C273.894 146.822 274.35 146.287 274.341 145.475C274.316 143.103 274.331 140.728 274.331 138.353L274.328 138.35ZM85.2437 237.822H17.9406C17.9406 237.987 17.9406 238.156 17.9406 238.322C40.3781 238.256 62.8156 238.491 85.2406 237.822H85.2437ZM164.116 134.906C166.816 134.906 169.516 134.922 172.216 134.887C172.637 134.881 173.425 135.372 173.422 134.497C173.422 133.837 173.278 132.978 172.306 132.875C171.844 132.828 171.372 132.853 170.906 132.866C167.897 132.947 164.887 133.053 161.878 133.106C159.491 133.15 157.1 133.147 154.709 133.131C153.95 133.125 153.709 133.441 153.762 134.169C153.809 134.847 153.975 135.216 154.781 135.125C157.884 134.778 161.003 134.972 164.116 134.906ZM164.041 132.159C166.584 132.159 169.125 132.162 171.669 132.153C172.006 132.153 172.472 132.241 172.425 131.662C172.387 131.219 171.994 131.253 171.712 131.281C170.816 131.369 169.984 130.966 169.116 130.962C164.341 130.937 159.566 130.941 154.787 130.956C154.219 130.956 153.403 130.778 153.528 131.816C153.637 132.731 154.409 132.444 154.872 132.378C157.922 131.944 160.984 132.119 164.044 132.162L164.041 132.159ZM162.291 98.2437V98.1843C161.566 98.1843 160.834 98.1093 160.122 98.2C158.637 98.3875 158.997 99.7343 158.812 100.625C158.609 101.603 159.531 101.178 159.972 101.219C161.156 101.322 162.347 101.347 163.534 101.391C165.459 101.466 165.4 101.462 165.347 99.5843C165.316 98.4906 164.912 98.0874 163.844 98.2312C163.334 98.2999 162.809 98.2437 162.294 98.2437H162.291ZM80.2187 234.141C80.2187 234.272 80.2187 234.403 80.2187 234.534H111.897C101.341 233.978 90.7812 234.053 80.2219 234.141H80.2187ZM29.9125 252.359C29.9094 252.456 29.9062 252.556 29.9031 252.653H60.6312C60.6312 252.556 60.6312 252.456 60.6312 252.359H29.9156H29.9125ZM312.2 100.766C313.306 99.2687 314.241 98.1093 315.053 96.8687C315.659 95.9437 317.131 94.9374 316.587 94.0781C316.062 93.2499 314.378 93.8531 313.209 93.75C312.356 93.6749 312.166 94.0781 312.187 94.8531C312.234 96.6687 312.203 98.4874 312.203 100.762L312.2 100.766ZM302.891 111.175C302.428 109.797 301.984 108.478 301.537 107.162C301.456 106.925 301.25 106.853 301.044 106.928C300.178 107.247 299.181 107.422 298.506 107.981C297.994 108.406 298.759 109.194 298.772 109.85C298.772 109.95 298.806 110.053 298.831 110.153C299.45 112.541 300.156 112.862 302.366 111.759C302.619 111.634 302.987 111.556 302.891 111.178V111.175ZM293.175 113.475C292.819 112.291 292.469 111.103 292.1 109.922C291.991 109.569 291.766 109.475 291.387 109.625C290.575 109.941 289.65 110.078 288.975 110.566C288.762 110.719 289.209 111.772 289.344 112.412C289.375 112.562 289.366 112.722 289.394 112.875C289.787 115.037 289.794 115.062 291.909 114.469C292.406 114.328 293.319 114.553 293.175 113.475ZM304.247 56.8406L304.291 56.4156C303.653 56.2625 303.022 56.0406 302.375 55.9687C301.003 55.8156 300.375 55.1781 300.55 53.7374C300.653 52.8687 300.569 51.975 300.537 51.0937C300.528 50.8093 300.578 50.4031 300.15 50.3718C299.737 50.3406 299.7 50.7156 299.634 51.0156C299.325 52.45 299.447 53.9062 299.419 55.3531C299.409 55.8125 299.722 55.9968 300.097 56.0687C301.478 56.3375 302.866 56.5843 304.253 56.8375L304.247 56.8406ZM297.953 179.587V179.594C299.044 179.594 300.131 179.6 301.222 179.591C301.5 179.591 301.734 179.456 301.797 179.169C301.869 178.841 301.662 178.691 301.366 178.687C299.187 178.681 297.012 178.681 294.834 178.681C294.441 178.681 294.262 178.956 294.284 179.284C294.316 179.772 294.725 179.581 294.997 179.584C295.981 179.594 296.969 179.587 297.953 179.587ZM297.684 173.931C298.853 173.931 299.825 173.931 300.794 173.931C300.947 173.931 301.112 173.937 301.25 173.884C301.425 173.816 301.606 173.712 301.725 173.575C301.775 173.516 301.712 173.281 301.631 173.206C301.191 172.806 298.356 173.225 297.684 173.934V173.931ZM148.484 130.109C147.669 127.994 147.041 127.631 145.456 128.191C146.416 128.8 147.294 129.356 148.484 130.109ZM134.103 105.753C133.994 105.369 134.4 104.731 133.628 104.691C132.941 104.653 133.006 105.272 132.975 105.681C132.941 106.137 133.059 106.716 133.597 106.759C134.394 106.825 133.909 106.091 134.1 105.753H134.103ZM131.275 103.866C130.694 104.562 130.253 105.156 130.631 106.003C130.675 106.1 130.975 106.2 130.984 106.184C131.391 105.591 131.675 104.953 131.519 104.206C131.509 104.159 131.459 104.122 131.275 103.866ZM144.734 123.522C144.316 124.05 143.237 124.1 143.569 125.059C143.644 125.275 144.187 125.562 144.303 125.487C145.016 125.025 144.506 124.194 144.734 123.522ZM123.719 103.578C123.734 103.175 123.637 102.766 123.287 102.844C122.497 103.022 122.862 103.859 122.594 104.362C122.441 104.65 122.737 105.037 123.081 104.909C123.697 104.681 123.375 103.922 123.719 103.578ZM128.656 103.284C128.3 103.697 128.15 103.831 128.05 103.994C127.681 104.594 127.772 105.187 128.153 105.737C128.212 105.825 128.503 105.881 128.553 105.825C128.956 105.397 128.731 104.853 128.766 104.356C128.781 104.109 128.719 103.856 128.659 103.284H128.656ZM126.284 104.266C126.216 103.941 126.406 103.425 125.85 103.453C125.15 103.487 125.362 104.119 125.3 104.531C125.25 104.856 125.134 105.325 125.712 105.306C126.444 105.281 126.2 104.672 126.281 104.269L126.284 104.266ZM136.262 107.244C136.841 106.503 136.628 105.794 136.606 105.122C136.606 105.072 136.262 104.956 136.222 105C135.722 105.553 135.991 106.225 135.987 106.853C135.987 106.931 136.091 107.006 136.262 107.247V107.244ZM174.337 105.059C174.234 104.984 174.122 104.9 174.009 104.819C173.962 104.894 173.866 104.981 173.878 105.044C173.919 105.234 174.009 105.419 174.253 105.366C174.294 105.356 174.303 105.194 174.337 105.059Z" fill="#231B40"/>
<path d="M20.3029 -2.13718C20.9811 -2.02781 21.4592 -2.38406 21.9717 -2.77156C34.8311 -12.4716 49.3092 -16.9591 65.3748 -15.7747C75.8186 -15.0059 85.4842 -11.5841 94.1842 -5.73093C106.762 2.73157 115.687 14.0878 120.55 28.5159C121.809 32.2534 122.784 36.0753 123.384 39.9816C123.534 40.9659 123.534 41.4566 122.094 41.4191C115.122 41.2409 108.14 41.2222 101.165 41.2753C97.5904 41.3034 93.9717 41.5534 90.4436 41.4066C81.8248 41.0409 73.2061 41.0159 64.5873 40.9034C55.1686 40.7784 45.7498 40.6253 36.3279 40.5409C31.2936 40.4972 26.2404 40.5066 21.2154 40.2503C15.9092 39.9784 10.6123 40.0909 5.3123 39.9441C3.55918 39.8941 1.79668 39.7253 0.0341797 39.6972C0.0341797 37.6128 0.0341797 35.5316 0.0341797 33.4472C1.1498 33.6472 2.25918 33.9784 3.37793 34.0253C9.35293 34.2847 15.3279 34.4659 21.3029 34.6941C21.9686 34.7191 22.4592 34.5316 22.9717 34.0816C26.1186 31.3066 29.1654 28.3909 32.5217 25.8909C34.7311 24.2441 35.5248 22.4816 35.3529 19.7722C35.1061 15.8753 33.3998 12.6128 30.3467 10.7566C26.8592 8.63469 24.6154 6.04094 23.6186 2.19407C23.4654 1.60032 23.0561 1.07532 22.8717 0.484694C22.4592 -0.846558 21.7092 -1.80593 20.2967 -2.13718H20.3029Z" fill="#9677B3"/>
<path d="M0.0372314 45.3187C8.40286 45.0062 16.7716 44.7343 25.1372 44.3687C31.8872 44.0749 38.6279 43.5968 45.3779 43.3249C53.8935 42.9812 62.4216 42.8999 70.931 42.4624C87.9435 41.5874 104.965 41.9968 121.984 41.8374C123.409 41.8249 123.668 42.2749 123.759 43.5718C124.015 47.1593 124.034 50.7343 123.793 54.3218C123.731 55.2437 123.465 55.528 122.528 55.5937C112.831 56.2812 103.14 57.0687 93.4404 57.7343C87.2654 58.1562 81.081 58.378 74.9029 58.7593C61.4029 59.5937 47.8747 59.7343 34.3622 60.2593C22.9279 60.7062 11.4872 61.1187 0.0372314 60.9437C0.0372314 55.7374 0.0372314 50.528 0.0372314 45.3218V45.3187Z" fill="#9677B3"/>
<path d="M303.347 12.694C305.055 12.3419 306.033 13.6107 306.278 16.5002C309.366 15.4127 312.422 14.3315 315.485 13.2627C315.925 13.1096 316.141 12.9346 316.119 12.3909C316.038 10.1034 315.991 7.81587 316.013 5.52524C316.022 4.65337 315.747 4.44087 314.878 4.36275C307.638 3.7065 300.407 2.98149 293.172 2.26899C289.919 1.95024 286.669 1.444 283.41 1.35962C281.575 1.31275 281.06 0.237745 280.338 -1.09663C294.197 -3.34663 307.107 -8.31538 319.972 -13.4216V4.70024C318.991 4.64399 318.51 4.94087 318.597 6.08774C318.719 7.72212 318.713 9.38149 318.597 11.019C318.503 12.3627 318.916 12.5377 319.969 11.8877V14.0752C318.61 14.3909 317.972 15.7159 318.472 17.3346C318.803 18.4034 319.478 17.3502 319.969 17.5127V19.7002C318.807 19.8315 318.45 20.544 318.497 21.6284C318.544 22.7252 318.507 23.8284 318.507 24.9284C319.022 24.9909 319.432 24.4315 319.969 24.6971V39.3815C316.313 40.8065 312.663 42.2534 308.997 43.6534C298.163 47.7971 287.322 51.9471 275.969 54.4846C268.616 56.1284 261.147 56.2877 253.65 55.7096C250.91 55.4971 248.188 55.1659 245.482 54.694C245.122 54.6315 244.75 54.644 244.338 54.0127C262.394 49.1971 279.678 42.4877 296.778 35.2659C297.082 34.2815 297.988 34.7534 298.6 34.5409C303.869 32.7127 309.16 30.9409 314.432 29.1221C315.253 28.8377 316.082 28.4721 316.547 27.644C316.741 27.2971 317.416 27.3284 317.163 26.5909C316.9 25.8221 316.366 26.0096 315.866 25.9409C315.866 24.4252 315.866 22.9096 315.866 21.2752C313.628 22.0252 311.628 22.694 309.632 23.3659C307.225 24.1784 306.084 25.8575 306.207 28.4034C306.219 28.6596 306.2 28.9284 306.266 29.1721C306.335 29.4284 306.582 29.3502 306.778 29.3284C305.753 30.3127 304.482 30.5534 303.125 30.5284C303.141 30.344 303.157 30.1565 303.172 29.9721C303.238 29.6221 303.36 29.269 303.363 28.9159C303.366 23.5065 303.353 18.0971 303.347 12.6909V12.694ZM315.819 15.5565C313.332 16.4034 310.991 17.1784 308.666 17.994C306.022 18.919 306.025 18.9346 306.25 21.7721C306.257 21.844 306.353 21.9096 306.453 22.0315C308.732 21.244 311.028 20.4596 313.316 19.6534C316.622 18.4909 316.022 19.2127 315.822 15.5534L315.819 15.5565ZM315.9 -2.58413C314.8 -3.41226 313.185 -3.18413 312.444 -4.16538C311.682 -5.17476 312.238 -6.67163 312.116 -7.94976C312.094 -8.16851 312.241 -8.52163 311.825 -8.51226C311.4 -8.50288 311.172 -8.25288 311.169 -7.81538C311.16 -6.56851 311.169 -5.32163 311.141 -4.07788C311.128 -3.48413 311.438 -3.25288 311.963 -3.17476C313.275 -2.98101 314.588 -2.78101 315.9 -2.58413Z" fill="#231B40"/>
<path d="M20.3034 -2.1374C21.7128 -1.80615 22.4628 -0.846777 22.8784 0.484474C23.0628 1.0751 23.469 1.6001 23.6253 2.19385C24.6221 6.04073 26.8659 8.63448 30.3534 10.7563C33.4065 12.6126 35.1128 15.8751 35.3596 19.772C35.5315 22.4813 34.7378 24.2438 32.5284 25.8907C29.1721 28.3907 26.1253 31.3063 22.9784 34.0813C22.4659 34.5313 21.9753 34.7188 21.3096 34.6938C15.3346 34.4657 9.35652 34.2845 3.38464 34.0251C2.26277 33.9751 1.15339 33.647 0.0408936 33.447C0.0408936 12.2001 0.0408936 -9.04365 0.0408936 -30.2905C5.30652 -25.603 8.29714 -19.8468 8.49402 -12.6999C8.55027 -10.6218 8.43464 -8.78428 6.76589 -7.2124C5.74402 -6.2499 7.20964 -3.31553 8.69089 -3.2374C11.8034 -3.07803 14.919 -2.9374 18.0065 -2.49365C18.7753 -2.38428 19.5409 -2.25615 20.3065 -2.1374H20.3034Z" fill="#231B40"/>
<path d="M33.7904 107.072C32.9279 107.919 31.9216 108.194 30.6935 108.141C27.1216 107.988 23.5185 108.406 19.9966 107.456C19.5091 107.325 19.056 107.485 18.6997 107.819C17.0872 109.313 15.156 109.581 13.0622 109.397C11.1997 109.235 9.31536 109.278 7.46536 109.05C6.52786 108.935 5.82161 109.144 5.21536 109.747C3.69036 111.263 1.82161 112.285 0.0372314 113.425V111.55C1.17161 110.641 2.41848 109.856 3.54661 108.425H0.0372314V104.363C2.73411 105.456 5.45911 104.916 8.55911 104.638C8.04348 104.347 7.87473 104.244 7.69973 104.153C6.49348 103.538 4.72161 103.816 4.26223 101.978C4.23411 101.866 3.77786 101.756 3.56223 101.81C2.38098 102.11 1.20911 102.463 0.0372314 102.797C0.0372314 90.3001 0.0372314 77.8033 0.0372314 65.3064C0.540356 65.4158 1.03723 65.5626 1.54661 65.6251C2.96223 65.797 3.97161 66.3783 4.22161 67.9251C4.37473 68.8626 4.94348 69.2689 5.92473 69.572C8.71223 70.4283 10.1341 72.9126 11.8497 75.0158C12.2654 75.8939 12.7466 76.7501 13.081 77.6564C13.7185 79.3908 14.1279 81.1658 13.4716 83.0033C13.1654 83.1845 12.8404 83.347 12.5529 83.5533C11.7654 84.122 11.3091 84.747 12.3185 85.5345C12.3591 85.5658 12.3872 85.6126 12.4185 85.6533C13.1497 86.5908 13.5216 87.8658 15.2029 87.6908C16.4466 87.5626 17.6779 88.0033 18.881 87.0626C19.4872 86.5876 20.5622 86.6658 21.4341 86.5939C23.5529 86.4158 25.6779 86.3251 27.7966 86.1376C28.3591 86.0876 28.6247 86.2033 28.8591 86.7314C29.3404 87.8126 30.1966 88.5595 31.2716 89.0533C33.0185 89.8564 34.3529 91.1033 35.2904 92.7814C35.3997 93.122 35.4154 93.547 35.6341 93.7845C37.7747 96.0939 37.9216 99.0189 38.2029 101.906C37.8935 103.86 35.9935 104.525 34.9685 105.897C34.5779 106.288 34.1872 106.675 33.7966 107.066L33.7904 107.072ZM9.21848 102.772C9.74036 101.616 10.406 101.1 11.2279 100.725C11.5466 100.578 11.9872 100.466 11.931 100.006C11.8591 99.4095 11.356 99.1501 10.8529 99.0189C10.4904 98.9251 9.87473 98.5908 9.73411 99.0658C9.32473 100.438 8.02161 101.135 7.44036 102.366C7.16536 102.95 7.31223 103.203 7.77786 103.491C9.03411 104.269 11.6904 103.453 12.4279 102C11.3935 101.894 10.5091 102.353 9.22161 102.772H9.21848ZM7.82473 89.6876C7.66536 88.9845 7.63411 88.1189 6.84348 87.9408C5.31848 87.597 4.32473 88.647 3.11848 89.6876H7.82786H7.82473Z" fill="#231B40"/>
<path d="M0.0372314 116.865C1.14661 115.431 2.72473 114.962 4.33098 114.24C6.29661 113.356 8.02786 113.562 9.90911 113.678C10.2935 113.703 10.7029 113.69 10.9216 113.396C12.3997 111.421 14.6279 111.812 16.6341 111.599C18.1279 111.44 19.6622 111.615 21.1435 111.409C22.4497 111.228 23.1404 111.718 23.4279 112.868C23.8622 114.621 24.6966 115.731 26.7279 115.349C27.3466 115.234 27.7997 115.631 28.1966 116.074C30.1841 118.284 31.7997 120.756 33.2185 123.353C33.7935 124.406 33.2622 125.612 33.456 126.718C33.7122 128.193 32.6154 128.671 31.7122 129.318C31.4997 129.468 31.2497 129.581 31.0747 129.762C28.5904 132.331 25.556 132.646 22.2497 131.993C21.4404 131.834 20.5966 131.849 19.7654 131.787C17.8872 131.178 16.0497 130.318 14.1216 130.006C9.44661 129.246 4.73411 129.537 0.0372314 129.987V116.865ZM12.4685 128.487C12.4966 128.312 12.5247 128.137 12.5529 127.962C10.4685 127.168 8.40911 126.306 6.28723 125.634C5.74973 125.465 4.70911 124.859 4.40598 125.856C4.10911 126.831 5.38723 126.593 5.90598 127.149C4.09973 127.765 2.09348 127.418 0.518481 128.615C4.52786 128.878 8.47473 128.028 12.4685 128.487Z" fill="#231B40"/>
<path d="M3.21238 134.45C5.0155 135.154 6.93738 135.413 8.82175 135.535C10.828 135.666 12.078 136.585 12.6343 138.36C13.0874 139.807 13.9655 140.157 15.2968 140.01C15.7061 139.966 16.128 140.019 16.5436 140.025C18.6124 140.057 19.9978 141.023 20.6999 142.925C20.953 143.616 21.3874 143.922 22.1155 144.154C25.8061 145.332 27.1093 148.541 26.5905 152.11C26.5061 152.685 25.9499 152.885 25.6155 153.263C23.853 155.263 21.8311 156.4 18.9749 155.985C16.728 155.657 14.4186 155.935 12.128 155.666C9.40613 155.35 6.78425 156.222 4.17175 156.894C3.553 157.054 3.14675 157.55 2.69988 158C1.87488 158.832 1.28113 159.95 0.0311279 160.291C0.0311279 159.563 0.0311279 158.832 0.0311279 158.104C1.17175 157.269 2.31238 156.435 3.453 155.597C4.41238 155.729 5.03425 154.991 5.83425 154.622C4.55925 154.885 3.17175 154.191 2.00925 155.188C1.74988 155.163 1.49363 155.138 1.23425 155.11L1.1655 155.019L1.05925 155.072C0.715503 155.041 0.374878 155.01 0.0311279 154.979C0.0311279 148 0.0311279 141.022 0.0311279 134.044C1.0905 134.179 2.14675 134.313 3.20613 134.447L3.21238 134.45ZM7.82488 154.35C9.05925 155.125 10.3561 154.688 11.8218 154.525C10.3843 154.285 9.1405 153.904 7.82488 154.35Z" fill="#231B40"/>
<path d="M311.647 111.022C312.041 110.472 313.91 110.553 312.285 109.1C311.775 108.647 312.154 107.209 312.11 106.225C312.085 105.672 312.025 105.122 311.988 104.684C312.057 104.84 312.01 105.072 311.807 105.275C311.188 104.675 311.544 103.878 311.369 103.187C313.441 100.269 315.504 97.3467 317.588 94.4405C318.047 93.803 318.285 93.3905 317.572 92.6155C316.682 91.6467 317.107 90.353 317.916 89.5249C318.688 88.7342 318.685 88.2311 318.21 87.2811C317.379 85.6092 318.116 84.6374 319.972 84.6842V113.428C317.353 115.037 314.654 116.487 311.782 117.594C311.582 117.544 311.382 117.494 311.182 117.447C311.472 117.125 311.532 116.784 311.266 116.416C311.869 116.256 311.66 115.765 311.66 115.387C311.666 113.931 311.65 112.478 311.644 111.022H311.647Z" fill="#9677B3"/>
<path d="M312.353 155.957C312.378 155.163 312.622 154.547 313.55 154.479C313.703 154.466 313.853 154.407 313.997 154.347C314.706 154.053 315.788 153.81 315.669 153.01C315.569 152.341 314.466 152.529 313.772 152.475C312.469 152.379 311.141 152.238 311.528 154.275C311.61 154.7 311.356 154.957 310.9 154.969C310.544 154.979 310.203 154.81 310.228 154.472C310.403 152.122 308.788 152.813 307.46 152.682C302.294 152.166 297.106 152.213 291.528 152.038C301.135 149.469 310.528 149.272 319.975 149.669V157.166C319.253 157.229 319.022 157.885 318.631 158.319C317.331 159.76 316.228 159.819 314.941 158.357C314.153 157.463 313.275 156.691 312.356 155.954L312.353 155.957Z" fill="#9677B3"/>
<path d="M3.21223 134.45C2.15286 134.316 1.09661 134.182 0.0372314 134.047V129.985C4.73411 129.538 9.44661 129.244 14.1216 130.004C16.0497 130.316 17.8872 131.175 19.7654 131.785C14.8872 132.075 10.0091 132.325 5.13723 132.694C4.22786 132.763 2.93411 132.863 3.21536 134.444L3.21223 134.45Z" fill="#9677B3"/>
<path d="M0.0372314 102.806C1.21223 102.471 2.38098 102.118 3.56223 101.818C3.77786 101.762 4.23411 101.871 4.26223 101.987C4.72161 103.824 6.49348 103.543 7.69973 104.162C7.87473 104.253 8.04348 104.356 8.55911 104.646C5.45911 104.924 2.73411 105.465 0.0372314 104.371C0.0372314 103.849 0.0372314 103.331 0.0372314 102.809V102.806Z" fill="#9677B3"/>
<path d="M13.4719 83.0122C14.1281 81.1716 13.7219 79.3997 13.0812 77.6654C12.7469 76.756 12.2656 75.9029 11.85 75.0247C14.1125 74.4966 16.4 74.8685 18.675 74.8841C26.9469 74.9372 35.2218 75.0622 43.4937 75.1716C67.8468 75.4904 92.2 75.7935 116.556 75.8029C118.534 75.8029 118.569 75.8435 117.672 77.5529C116.756 79.2997 115.753 81.0029 114.809 82.7372C114.419 83.4529 113.891 83.7247 113.053 83.7185C99 83.6529 84.9468 83.6404 70.8969 83.5654C57.7312 83.4966 44.5656 83.3779 31.4 83.2591C25.425 83.206 19.4469 83.0935 13.4719 83.0091V83.0122Z" fill="#9677B3"/>
<path d="M248.106 83.7403C246.965 83.0372 245.64 83.2778 244.412 83.109C236.95 82.0778 229.6 80.5747 222.365 78.4622C216.756 76.8215 211.359 74.6997 206.212 71.9403C205.772 71.7028 205.212 71.6372 204.881 71.0215C205.472 70.7809 205.981 71.0215 206.503 71.1122C208.859 71.5153 211.131 70.8122 213.437 70.5497C213.709 70.5184 213.64 70.2372 213.659 70.0403C217.947 70.8122 222.128 72.0559 226.422 72.8153C234.543 74.2528 242.715 74.784 250.95 74.5403C253.393 74.4684 255.865 74.5747 258.275 74.2528C260.931 73.8997 263.575 73.5497 266.247 73.3309C271.809 72.8747 277.393 72.684 282.928 73.1622C290.043 73.7747 297.212 74.1153 304.212 75.7528C304.606 75.8465 305.328 75.5965 305.309 76.2778C305.293 76.8153 304.647 76.5747 304.281 76.6778C298.712 78.2965 293.084 77.7778 287.453 77.1372C274.09 75.6184 261.281 77.5184 249.109 83.3497C248.787 83.5028 248.437 83.609 248.103 83.734L248.106 83.7403Z" fill="#9677B3"/>
<path d="M38.2 101.913C37.9219 99.0252 37.7719 96.1002 35.6312 93.7908C35.4125 93.5533 35.3969 93.1252 35.2875 92.7877C42.4687 92.6283 49.6406 93.0345 56.8125 93.2377C61.1594 93.3595 65.5531 93.1908 69.8594 94.0595C71.1781 94.3252 73.0093 94.3033 73.1 96.1002C73.1812 97.7439 71.4594 98.0689 70.2281 98.4971C67.3562 99.4971 64.3281 99.6971 61.3312 99.8846C54.6375 100.303 47.9375 100.578 41.2406 100.938C40.1594 100.997 38.9375 100.728 38.2031 101.916L38.2 101.913Z" fill="#9677B3"/>
<path d="M50.4907 64.3217C54.272 64.0592 58.047 63.6654 61.8345 63.5685C66.0532 63.4623 70.2407 62.956 74.4532 62.7779C90.1063 62.1123 105.763 62.606 121.419 62.5217C121.791 62.5217 122.675 62.081 122.5 63.0185C122.369 63.7279 122.653 64.8092 121.469 65.0123C121.166 65.0654 120.847 65.031 120.534 65.0279C102.431 64.8685 84.3251 64.6967 66.222 64.5529C60.9782 64.5123 55.7345 64.5467 50.4907 64.5467C50.4907 64.4717 50.4938 64.3967 50.497 64.3217H50.4907Z" fill="#9677B3"/>
<path d="M122.55 127.819C124.935 129.447 127.319 131.075 129.81 132.778C128.547 133.125 127.516 132.931 126.631 132.081C125.85 131.334 125.103 130.581 123.675 129.969C124.441 130.944 125.019 131.481 125.738 131.816C126.25 132.053 126.319 132.441 126.16 132.825C125.981 133.256 125.513 133.078 125.197 132.984C124.806 132.869 124.303 132.728 124.103 132.428C122.86 130.55 121.081 130.881 119.41 131.372C117.341 131.978 115.228 132.488 113.263 133.434C112.506 133.797 112.025 134.241 111.885 135.131C111.328 138.653 110.653 142.156 110.138 145.684C109.785 148.1 108.994 150.016 106.219 150.325C105.656 149.978 105.785 149.441 105.856 148.938C106.588 143.766 107.488 138.625 108.585 133.519C108.731 132.834 108.956 132.372 109.778 132.134C112.663 131.309 115.516 130.372 118.366 129.428C119.166 129.163 120.181 129.35 120.528 128.05C120.678 127.491 121.869 128.1 122.55 127.822V127.819Z" fill="#9677B3"/>
<path d="M197.953 54.9622C192.463 55.3809 187.038 56.209 181.706 57.5997C179.55 58.1622 177.388 58.7215 175.278 59.4309C174.375 59.734 173.972 59.5153 173.528 58.7778C172.013 56.2559 172.034 56.384 174.806 55.434C179.591 53.7934 184.575 53.0622 189.494 52.0309C191.209 51.6715 193.019 51.9153 194.738 51.4465C194.959 51.4903 195.075 51.634 195.103 51.8528C194.994 52.534 194.538 52.7778 193.903 52.8278C192.616 52.9278 191.322 52.9934 190.044 53.1747C188.238 53.4309 186.441 53.7809 184.641 54.0903C187.244 54.0153 189.803 53.6778 192.341 53.2215C193.531 53.0059 194.809 53.384 195.922 52.6903C196.738 53.3247 197.378 54.1153 197.953 54.9622ZM183.713 54.309L177.566 56.0215C179.684 55.709 181.8 55.3809 183.713 54.309ZM175.372 56.7653C175.366 56.734 175.363 56.6778 175.35 56.6778C175.259 56.6622 175.159 56.6309 175.072 56.6528C174.938 56.684 174.944 56.7684 175.094 56.8028C175.178 56.8215 175.278 56.784 175.372 56.7684V56.7653ZM176.388 56.3028C176.303 56.3403 176.222 56.3747 176.138 56.4122C176.222 56.4434 176.309 56.4997 176.394 56.4965C176.478 56.4965 176.563 56.434 176.647 56.3997C176.563 56.3684 176.478 56.3372 176.388 56.3028Z" fill="#9677B3"/>
<path d="M95.422 103.765C93.4501 104.859 91.8907 105.615 89.8907 105.609C78.8189 105.575 67.7626 106.418 56.6845 106.268C55.2064 106.25 53.722 106.49 52.2345 106.171C66.4095 104.096 80.6751 103.581 95.422 103.765Z" fill="#9677B3"/>
<path d="M303.128 30.5309C304.485 30.5527 305.757 30.3121 306.782 29.3277L306.835 29.3746C307.388 29.3434 308.15 29.8059 308.278 28.7684C308.469 28.7246 308.66 28.6777 308.85 28.634C308.953 28.7465 309.085 28.9746 309.153 28.9559C311.191 28.3934 313.353 28.1121 314.966 26.534L314.947 26.5496C315.438 26.6027 316.103 26.9309 315.9 25.9277L315.872 25.9402C316.372 26.009 316.907 25.8215 317.169 26.5902C317.422 27.3277 316.747 27.2965 316.553 27.6434C316.091 28.4715 315.263 28.8371 314.438 29.1215C309.166 30.9402 303.875 32.7121 298.607 34.5402C297.994 34.7527 297.088 34.2809 296.785 35.2652C296.882 34.6496 296.978 34.0309 297.075 33.4121C297.241 33.5527 297.253 34.0777 297.482 33.8559C297.738 33.6059 297.775 33.0902 297.45 32.7184C299.25 31.7465 301.272 31.3559 303.132 30.534L303.128 30.5309Z" fill="#9677B3"/>
<path d="M187.916 43.7785C184.269 44.1785 180.622 44.591 177.025 45.3347C174.959 45.7628 172.853 46.0441 170.95 47.1128C170.203 47.5316 169.219 47.9722 168.569 46.7597C168.053 45.8003 168.041 45.3128 169.325 44.9128C174.203 43.3941 179.175 42.4472 184.259 42.0097C184.916 41.9535 185.641 42.5097 186.238 41.8347C186.928 42.3691 187.478 43.0253 187.919 43.7785H187.916Z" fill="#9677B3"/>
<path d="M260.641 21.0004C260.022 23.1817 259.341 25.3473 258.8 27.5473C258.138 30.2504 256.328 32.3004 254.96 34.6036C254.516 35.3504 254.144 34.6286 253.891 34.4067C251.897 32.6504 250.291 30.5723 249 28.1942C251.035 28.8348 252.485 30.3629 254.119 31.7067C255.96 27.8442 257.544 23.9723 260.641 20.9973V21.0004Z" fill="#9677B3"/>
<path d="M193.807 50.3472C192.275 51.1753 190.55 50.8972 188.932 51.094C183.36 51.7784 177.947 53.1128 172.566 54.6315C172.316 54.7003 172.069 54.7847 171.816 54.8253C171.194 54.9284 171.01 54.4909 170.869 54.0222C170.7 53.469 171.035 53.3378 171.488 53.1847C177.047 51.294 182.738 50.0034 188.578 49.3909C189.907 49.2503 191.238 49.1128 192.566 48.9722C193.135 49.2909 193.538 49.7597 193.81 50.3472H193.807Z" fill="#9677B3"/>
<path d="M160.931 118.072C160.584 119.303 159.356 119.572 158.5 120.215C157.212 121.187 155.937 122.206 155.081 123.531C154.416 124.562 153.972 124.231 153.25 123.794C152.687 123.453 152.512 122.353 151.372 122.987C150.969 123.212 150.95 122.362 150.981 121.919C153.184 120.259 155.416 118.631 157.584 116.928C158.987 115.825 158.997 115.775 159.872 117.406C160.116 117.862 160.187 118.459 160.928 118.075L160.931 118.072Z" fill="#9677B3"/>
<path d="M157.513 45.7808C158.513 47.0121 159.331 46.9465 159.963 45.6183C160.681 44.1058 161.988 43.3402 163.525 42.8746C164.247 42.6558 164.409 43.1152 164.278 43.609C164.131 44.1621 164.997 45.3058 164.009 45.1902C161.825 44.9402 161.028 46.4465 160.166 47.7777C159.497 48.8121 158.703 49.4621 157.594 49.8715C156.041 50.4433 154.503 51.0558 152.963 51.6652C152.65 51.7902 152.372 51.8996 152.159 51.5277C153.497 50.0215 154.844 48.5215 156.169 47.0027C156.456 46.6746 156.984 46.4746 156.869 45.8871L156.859 45.9371C157.078 45.884 157.297 45.834 157.513 45.7808Z" fill="#9677B3"/>
<path d="M164.85 71.8848C166.922 71.1223 169.128 71.2161 171.272 71.0161C175.3 70.6411 179.353 70.5317 183.397 70.3223C183.809 70.3005 184.253 70.2661 184.637 70.3848C185.134 70.538 185.315 71.0473 185.284 71.5098C185.247 72.0442 184.744 71.8661 184.419 71.8755C180.628 71.9911 176.834 72.0536 173.047 72.2192C170.825 72.3161 168.609 72.5692 166.39 72.7536C165.887 72.4442 165.212 72.4442 164.853 71.8817L164.85 71.8848Z" fill="#9677B3"/>
<path d="M216.172 17.8122C217.5 18.106 218.344 18.8091 219.153 19.506C219.841 20.0966 220.181 20.0747 220.644 19.2591C221.578 17.6154 222.788 16.2029 224.556 15.3841C224.872 15.2372 225.2 14.8779 225.553 15.1216C225.997 15.4279 225.7 15.9154 225.591 16.2591C225.109 17.7747 224.078 18.9466 223.056 20.1185C222.647 20.5872 222.213 21.031 221.797 21.4935C220.25 23.2185 220.053 23.2497 218.509 21.4435C217.622 20.4091 216.541 19.4685 216.175 17.8091L216.172 17.8122Z" fill="#9677B3"/>
<path d="M81.8658 90.6848H109.447C108.866 91.7411 108.219 92.0254 106.988 91.9473C102.631 91.6692 98.2596 91.6598 93.8971 91.4911C89.9033 91.3379 85.9127 91.1098 81.9221 90.9161C81.9033 90.8411 81.8846 90.7629 81.8658 90.6879V90.6848Z" fill="#9677B3"/>
<path d="M164.731 105.097C164.156 104.594 163.578 104.094 163.003 103.594C162.875 103.472 162.747 103.347 162.619 103.226C162.366 103.504 162.559 103.644 162.791 103.769C162.947 104.713 163.959 105.172 164.259 106.291C162.213 106.051 160.322 105.829 158.434 105.607C158.172 105.576 157.972 105.51 157.859 105.204C157.381 103.888 158.634 102.166 160.038 102.257C161.894 102.379 163.766 102.332 165.6 102.713C165.803 103.688 165.463 104.463 164.731 105.101V105.097Z" fill="#9677B3"/>
<path d="M141.572 127.156C143.628 128.344 145.678 129.544 147.741 130.719C148.566 131.187 148.506 131.884 148.25 132.6C147.981 133.35 147.372 133.294 146.7 133.219C144.891 133.012 143.728 131.64 142.322 130.762C140.431 129.578 138.225 128.712 137.031 126.612C137.416 126.606 137.797 126.603 138.181 126.597C140.709 128.565 143.291 130.447 146.294 131.628C145.234 130.556 144 129.74 142.884 128.787C142.369 128.35 141.456 128.134 141.569 127.156H141.572Z" fill="#9677B3"/>
<path d="M245.071 21.2154C245.056 21.5717 244.862 21.8092 244.562 21.9717C243.981 20.4748 244.15 19.0311 244.831 17.6061C244.94 17.3779 245.225 17.0186 244.634 16.9748C246 14.3717 246.946 11.5092 249.459 9.1748C248.659 12.7561 248.153 16.0311 246.625 19.0279C246.293 19.6779 245.881 20.2561 245.346 20.7498C245.065 20.6029 244.984 20.7311 245.003 20.9998L245.037 20.9654C244.959 20.9967 244.815 21.0248 244.812 21.0654C244.793 21.2623 244.934 21.2498 245.068 21.2186L245.071 21.2154Z" fill="#9677B3"/>
<path d="M189.778 46.1971C185.606 46.1252 181.566 47.0033 177.541 47.9408C175.272 48.4689 172.972 48.9127 170.844 49.9221C170.425 50.1189 170.019 50.2627 169.847 49.6783C169.681 49.1033 170.175 49.0096 170.559 48.8596C173.575 47.6908 176.753 47.2002 179.909 46.6252C183.066 46.0471 186.234 45.5471 189.453 45.5127C189.822 45.6189 189.772 45.9221 189.778 46.2002V46.1971Z" fill="#9677B3"/>
<path d="M185.009 40.3095C179.237 40.5407 173.625 41.5751 168.209 43.6188C167.965 43.7095 167.725 43.8063 167.481 43.897C167.206 43.997 166.878 44.2657 166.687 43.8501C166.484 43.4063 166.822 43.1813 167.184 43.0438C168.003 42.7376 168.822 42.422 169.656 42.1595C173.725 40.8813 177.881 40.0345 182.137 39.6938C182.475 39.6657 182.884 39.8251 183.103 39.397C183.706 39.7688 184.572 39.5845 185.006 40.3063L185.009 40.3095Z" fill="#9677B3"/>
<path d="M167.762 98.0786C170.681 99.1786 172.306 101.491 173.891 104.372C172.416 104.129 171.25 103.154 170.291 104.494C168.912 102.569 167.906 100.494 167.762 98.0817V98.0786Z" fill="#9677B3"/>
<path d="M171.113 68.2339C168.641 68.9714 166.1 69.3589 163.55 69.7214C162.585 69.8589 161.638 70.1152 160.675 70.2777C159.547 70.4714 159.053 71.062 159.369 72.212C158.738 72.0495 158.335 73.1777 157.735 72.6152C157.044 71.9683 157.231 70.962 157.106 70.1058C157.022 69.5308 157.528 69.4964 157.947 69.4339C162.31 68.7683 166.685 68.2058 171.11 68.2308L171.113 68.2339Z" fill="#9677B3"/>
<path d="M244.634 16.9755C245.225 17.0192 244.938 17.3786 244.831 17.6067C244.153 19.0286 243.984 20.4755 244.563 21.9724C243.5 23.3224 243.388 23.3536 242.075 21.8974C240.666 20.3317 239.369 18.6755 238.484 16.6724C240.247 17.4599 241.684 18.7067 243.275 19.9036C243.744 18.8942 244.191 17.9349 244.634 16.9755Z" fill="#9677B3"/>
<path d="M272.885 24.6374C273.122 24.5468 273.175 24.5061 273.216 24.5124C275.416 24.9936 275.41 24.9843 277.381 23.6218C277.888 23.2718 278.456 22.9999 279.016 22.7405C279.36 22.5811 279.781 22.1061 280.11 22.503C280.506 22.9843 280.11 23.5218 279.763 23.8749C278.61 25.0468 277.11 25.8561 276.203 27.303C275.975 27.6655 275.553 27.553 275.238 27.303C274.313 26.5718 273.347 25.8749 272.888 24.6311L272.885 24.6374Z" fill="#9677B3"/>
<path d="M164.187 109.712C162.634 108.903 160.884 108.716 159.259 108.141C158.45 107.853 157.547 107.731 156.906 106.612C159.969 106.487 162.666 107.475 165.431 107.922C165.478 108.841 164.812 109.259 164.187 109.709V109.712Z" fill="#9677B3"/>
<path d="M125.413 127.468C128.128 128.968 130.419 131.053 133.203 132.881C131.822 133.221 130.863 132.909 130.053 132.256C128.085 130.671 125.913 129.343 124.103 127.559C124.541 127.528 124.975 127.5 125.41 127.468H125.413Z" fill="#9677B3"/>
<path d="M136.563 132.16C136.113 132.597 137.113 132.863 136.728 133.185C136.313 133.529 135.782 133.247 135.425 133.007C133.113 131.444 130.735 129.951 128.591 128.176C127.938 127.635 127.141 127.772 126.628 127.207C127.353 127.257 128.088 127.369 128.757 126.957C130.235 128.682 132.469 129.332 134.16 130.76C134.182 130.779 134.319 130.666 134.403 130.613L134.382 130.594C134.682 131.732 135.45 132.21 136.588 132.176L136.563 132.157V132.16Z" fill="#9677B3"/>
<path d="M131.65 127.115C132.272 127.25 132.812 127.544 133.256 127.987C135.087 129.828 137.334 131.059 139.559 132.325C139.856 132.494 140.234 132.615 140.265 133.053C138.706 134.087 137.797 132.45 136.559 132.162L136.584 132.181C136.04 131.384 135.275 130.9 134.378 130.6L134.4 130.619C133.318 129.272 131.922 128.265 130.609 127.169C130.956 127.15 131.303 127.134 131.65 127.115Z" fill="#9677B3"/>
<path d="M135.05 126.616C136.46 128.344 138.385 129.451 140.11 130.801C141.15 131.616 142.457 132.076 143.235 133.257C139.603 131.822 136.507 129.579 133.713 126.876C134.2 126.994 134.616 126.757 135.053 126.616H135.05Z" fill="#9677B3"/>
<path d="M141.572 127.156C141.462 128.131 142.375 128.347 142.887 128.787C144.003 129.74 145.234 130.556 146.297 131.628C143.294 130.447 140.712 128.565 138.184 126.597C138.6 126.609 139.015 126.625 139.428 126.637C139.69 126.937 140.025 126.881 140.359 126.815C140.559 126.834 140.759 126.853 140.959 126.875L140.937 126.853C141.003 127.265 141.181 127.453 141.594 127.181L141.575 127.159L141.572 127.156Z" fill="#231B40"/>
<path d="M166.807 112.122C166.594 113.2 165.55 113.703 165.085 114.612C164.647 115.465 164.11 116.268 163.891 117.393C163.303 116.884 162.866 116.49 162.619 115.915C163.203 116.018 163.213 115.475 163.447 115.184C164.419 114.003 165.185 112.593 166.803 112.122H166.807Z" fill="#9677B3"/>
<path d="M195.922 52.6905C194.809 53.3843 193.531 53.0093 192.341 53.2218C189.803 53.678 187.247 54.0155 184.641 54.0905C186.441 53.7812 188.234 53.4312 190.044 53.1749C191.322 52.9937 192.616 52.9312 193.903 52.828C194.537 52.778 194.994 52.5343 195.103 51.853C195.375 52.1312 195.65 52.4124 195.922 52.6905Z" fill="#231B40"/>
<path d="M130.609 127.168C131.922 128.262 133.319 129.268 134.4 130.618C134.316 130.668 134.181 130.784 134.156 130.765C132.469 129.337 130.231 128.687 128.753 126.962C129.394 126.837 130.009 126.937 130.609 127.172V127.168Z" fill="#231B40"/>
<path d="M303.347 12.6936C303.356 18.1029 303.369 23.5123 303.362 28.9186C303.362 29.2717 303.241 29.6248 303.172 29.9748C303.162 24.4029 303.153 18.8279 303.153 13.2561C303.153 13.0686 303.278 12.8811 303.344 12.6904L303.347 12.6936Z" fill="#9677B3"/>
<path d="M33.7909 107.072C34.1815 106.681 34.5721 106.294 34.9628 105.903C36.3628 106.541 37.8534 106.313 39.3159 106.372C39.9878 106.4 40.6628 106.375 41.344 106.453C38.8503 106.931 36.2784 106.535 33.7909 107.069V107.072Z" fill="#9677B3"/>
<path d="M171.269 106.222C172.125 106.938 172.265 107.572 171.137 108.197C170.572 108.509 170.087 108.969 169.562 109.366C169.372 108.35 168.344 107.931 167.819 107.078C168.687 106.616 169.25 107.156 169.872 107.434C170.365 107.656 170.922 107.697 171.353 107.356C171.79 107.009 171.159 106.619 171.265 106.225L171.269 106.222Z" fill="#9677B3"/>
<path d="M297.447 32.7155C297.772 33.0905 297.734 33.603 297.478 33.853C297.25 34.078 297.237 33.5499 297.072 33.4093C297.069 33.1093 297.134 32.8437 297.447 32.7124V32.7155Z" fill="#231B40"/>
<path d="M159.356 72.2034C159.828 72.2127 160.3 72.2221 160.772 72.2284C160.294 72.5721 159.819 72.7752 159.356 72.2034Z" fill="#9677B3"/>
<path d="M172.597 68.1714C172.216 68.487 171.825 68.6495 171.403 68.237C171.8 68.2151 172.2 68.1933 172.597 68.1714Z" fill="#9677B3"/>
<path d="M140.359 126.815C140.025 126.881 139.691 126.937 139.428 126.637C139.769 126.54 140.084 126.581 140.359 126.815Z" fill="#9677B3"/>
<path d="M157.531 73.1995C157.341 73.2151 157.147 73.2339 156.956 73.2495C157.128 72.9839 157.328 73.0808 157.531 73.1995Z" fill="#9677B3"/>
<path d="M260.097 174.047C259.432 175.538 260.094 177.129 259.757 178.647C258.407 178.682 257.057 178.719 255.71 178.744C255.082 178.757 254.5 178.785 254.791 179.682C254.847 180.766 254.903 181.847 254.975 183.241C253.15 182.072 251.75 180.735 250.294 179.482C248.203 177.682 248.188 177.647 249.744 175.394C251.157 173.347 252.638 171.344 254.088 169.322C254.185 169.222 254.282 169.122 254.382 169.022L254.338 169.041C255.738 168.832 257.188 168.594 257.922 167.213C258.944 165.282 260.269 163.701 262.203 162.629C262.682 162.363 263.157 161.91 263.391 161.429C264.791 158.522 267.435 157.069 270.066 155.607C271.313 154.913 272.475 153.963 274.028 154.013C274.597 155.732 274.197 157.494 274.269 159.235C274.297 159.904 274.216 160.579 274.203 161.251C274.157 163.888 274.16 163.926 271.569 164.022C270.803 164.051 270.578 164.313 270.613 165.029C270.666 166.113 270.663 167.204 270.682 168.288C270.497 168.472 270.066 168.326 270.063 168.754C269.91 168.766 269.757 168.785 269.6 168.788C266.75 168.89 265.449 170.405 265.697 173.332C264.678 173.841 263.588 173.769 262.497 173.772C261.694 173.772 260.847 173.529 260.097 174.044V174.047Z" fill="#9677B3"/>
<path d="M290.063 150.594C286.85 151.757 284.719 154.354 282.244 156.491C281.981 156.719 281.856 156.988 282.25 157.232C282.3 157.429 282.331 157.663 282.606 157.644C290.078 157.129 297.563 157.616 305.038 157.413C305.588 157.397 306.144 157.641 306.697 157.757C307.509 157.926 307.547 158.519 307.156 158.988C306.259 160.063 306.309 161.591 305.316 162.591C304.681 162.051 303.922 162.313 303.225 162.31C296.988 162.285 290.75 162.354 284.513 162.272C282.125 162.241 279.744 161.066 277.347 162.291C277.266 162.332 277.034 162.082 276.872 161.969C276.444 160.347 276.684 158.691 276.659 157.054C276.6 153.547 276.625 150.041 276.619 146.535C277.197 148.276 276.675 150.094 276.981 151.897C279.972 150.654 282.953 149.507 286.025 148.629C287.366 148.244 287.856 147.572 287.881 146.104C287.944 142.619 287.516 139.216 286.834 135.822C287.091 134.904 288.075 134.619 288.444 133.832C289.053 134.047 288.803 134.479 288.797 134.776C288.725 139.476 288.694 144.179 288.503 148.876C288.45 150.191 288.881 150.626 290.069 150.594H290.063Z" fill="#9677B3"/>
<path d="M171.659 155.487C173.372 155.487 175.084 155.531 176.797 155.468C177.65 155.437 178.109 155.543 178.203 156.568C178.328 157.947 179.322 159.665 178.794 160.568C178.184 161.609 176.203 161.078 174.844 161.109C169.188 161.24 163.547 161.503 157.941 162.293C157.228 162.393 157.025 162.028 156.947 161.431C156.778 160.097 156.613 158.759 156.406 157.428C156.203 156.125 157.281 156.447 157.841 156.393C162.438 155.953 167.044 155.681 171.663 155.487H171.659Z" fill="#9677B3"/>
<path d="M159.55 151.931C158.69 151.931 157.818 151.853 156.972 151.95C155.893 152.075 155.747 151.556 155.593 150.637C155.403 149.497 156.156 149.531 156.759 149.503C163.15 149.216 169.537 148.925 175.937 149.031C176.09 149.031 176.265 149.012 176.393 149.075C176.734 149.241 177.79 153.528 177.559 153.822C177.34 154.109 176.993 154.034 176.693 154.031C170.293 153.947 163.928 154.578 157.553 154.984C156.522 155.05 155.962 154.922 155.928 153.622C155.893 152.297 156.381 151.994 157.531 152.094C158.2 152.153 158.878 152.103 159.553 152.103C159.553 152.044 159.553 151.984 159.553 151.928L159.55 151.931Z" fill="#9677B3"/>
<path d="M160.55 75.6028C162.978 74.8278 165.519 74.6497 168.022 74.3966C172.978 73.8966 177.956 73.6185 182.928 73.2622C183.706 73.206 184.487 73.2372 185.269 73.2091C186.453 73.1716 186.662 74.1185 186.691 74.8935C186.722 75.8216 185.844 75.3622 185.391 75.3685C179.047 75.4591 172.703 75.4935 166.375 76.0091C165.606 76.0716 164.844 76.2403 164.075 76.3497C163.825 76.3841 163.491 76.3497 163.509 76.7028C163.534 77.1216 163.925 77.2247 164.194 77.0591C165.803 76.0716 167.719 77.5028 169.294 76.3841C171.391 77.481 173.441 76.2841 175.512 76.2372C178.994 76.1591 182.466 75.7403 185.953 75.8435C186.456 75.8591 187.069 75.6841 187.359 76.2528C187.656 76.8372 188.234 77.4747 187.95 78.106C187.694 78.6685 186.919 78.381 186.378 78.3841C182.475 78.4122 178.572 78.3653 174.672 78.431C170.997 78.4935 167.381 79.1622 163.747 79.6466C163.591 78.5091 162.534 78.9497 161.925 78.606C163.609 77.6903 165.509 78.0028 167.031 77.6091C166.122 77.4872 164.944 77.306 163.778 77.6435C162.575 77.9903 161.441 78.2435 160.962 76.6247C161.097 76.1747 161.062 75.7903 160.55 75.5997V75.6028Z" fill="#9677B3"/>
<path d="M162.353 81.9026C164.694 80.9995 167.194 80.9995 169.628 80.6558C175.353 79.8495 181.125 79.9339 186.887 79.7901C187.303 79.7808 187.719 79.8245 188.134 79.8214C189.028 79.8089 189.356 80.4651 189.35 81.1308C189.34 81.9651 188.55 81.5933 188.125 81.5995C184.719 81.637 181.309 81.6214 177.9 81.812C181.225 81.812 184.553 81.8714 187.875 81.787C189.54 81.7464 190.415 82.362 190.509 84.0651C182.978 83.8464 175.459 83.7964 167.965 84.6214C167.512 84.337 167.059 84.0495 166.603 83.7651C165.684 83.437 164.828 82.8995 163.756 83.2089C163.262 83.3495 162.619 83.5058 162.362 82.7401C162.359 82.462 162.353 82.1839 162.35 81.9058L162.353 81.9026ZM176.434 81.7245C175.578 81.9089 174.737 82.0183 173.884 82.062C174.744 81.9464 175.656 82.3495 176.434 81.7245Z" fill="#9677B3"/>
<path d="M172.128 137.869C167.1 138.057 162.062 137.963 157.044 138.444C156.478 138.497 155.9 138.432 155.328 138.457C154.644 138.485 154.103 138.441 154.069 137.522C154.031 136.563 154.606 136.616 155.269 136.566C160.359 136.178 165.459 136.257 170.556 136.25C171.587 136.25 172.772 135.76 173.612 136.347C174.403 136.9 173.965 138.207 174.415 139.063C175.128 140.422 174.628 140.653 173.284 140.625C168.447 140.528 163.609 140.588 158.775 140.872C157.687 140.935 156.65 141.266 155.54 141.26C154.662 141.253 154.394 141.035 154.372 140.16C154.35 139.272 154.544 138.772 155.512 138.728C157.537 138.638 159.556 138.469 161.581 138.413C165.103 138.316 168.634 138.491 172.131 137.875L172.128 137.869Z" fill="#9677B3"/>
<path d="M160.047 144.971C164.766 144.84 169.488 144.712 174.206 144.581C174.947 144.562 175.625 144.537 175.916 145.499C176.375 147.028 176.238 147.346 174.638 147.368C170.591 147.421 166.547 147.493 162.506 147.771C160.491 147.909 158.472 148.034 156.456 148.196C155.844 148.246 155.106 148.565 155.11 147.546C155.11 146.743 154.5 145.724 156.028 145.387C157.36 145.093 158.731 145.531 160.01 144.99L160.047 144.968V144.971Z" fill="#9677B3"/>
<path d="M160.013 144.993C158.713 145.031 157.406 144.99 156.116 145.125C154.931 145.25 154.856 144.484 154.753 143.7C154.609 142.643 155.413 142.878 155.994 142.834C161.916 142.387 167.85 142.515 173.778 142.478C174.263 142.475 174.897 142.225 175.194 142.796C175.397 143.19 175.534 143.737 175.428 144.143C175.306 144.618 174.722 144.443 174.338 144.434C170.072 144.356 165.806 144.287 161.553 144.737C161.05 144.79 160.506 144.593 160.05 144.968L160.013 144.99V144.993Z" fill="#9677B3"/>
<path d="M164.113 134.909C161 134.975 157.881 134.781 154.778 135.128C153.972 135.218 153.806 134.85 153.759 134.171C153.709 133.443 153.947 133.128 154.706 133.134C157.094 133.15 159.484 133.153 161.875 133.109C164.884 133.056 167.894 132.946 170.903 132.868C171.369 132.856 171.841 132.831 172.303 132.878C173.275 132.978 173.416 133.84 173.419 134.5C173.422 135.375 172.631 134.887 172.213 134.89C169.513 134.925 166.813 134.909 164.113 134.909Z" fill="#9677B3"/>
<path d="M168.412 87.5812C168.515 87.0125 168.084 86.8031 167.715 86.5531C169.5 85.9093 171.39 85.9687 173.234 85.7625C178.828 85.1437 184.45 85.35 190.062 85.275C190.912 85.2625 191.45 85.6375 191.406 86.3937C191.356 87.2687 190.522 86.8562 190.069 86.8468C182.834 86.6687 175.622 87.0093 168.412 87.5781V87.5812Z" fill="#9677B3"/>
<path d="M168.737 94.9688C169 94.7688 169.265 94.5719 169.787 94.1782C168.172 94.2938 166.853 94.2563 165.559 93.9563C167.093 93.4625 168.697 93.4282 170.275 93.4032C177.747 93.2782 185.218 93.2344 192.69 93.1282C193.293 93.1188 193.822 93.1938 193.862 93.8125C193.918 94.6469 193.162 94.2469 192.822 94.25C189.134 94.3032 185.45 94.2782 181.762 94.3219C178.29 94.3625 174.825 94.5375 171.372 94.9313C170.503 95.0313 169.615 94.9594 168.737 94.9657V94.9688Z" fill="#9677B3"/>
<path d="M169.972 90.7249C169.935 90.3937 169.9 90.0624 169.863 89.728C170.685 89.0937 171.672 89.3655 172.578 89.2874C178.631 88.7655 184.697 88.5499 190.772 88.5187C191.085 88.5187 191.4 88.4968 191.706 88.5405C192.403 88.6405 192.691 89.2499 192.691 89.7718C192.691 90.4905 191.978 90.1905 191.591 90.1874C189.775 90.1687 187.963 90.0811 186.147 90.0249C180.741 89.8593 175.363 90.3718 169.978 90.7249H169.972Z" fill="#9677B3"/>
<path d="M202.194 148.712C200.006 146.284 198.413 143.431 196.531 140.784C194.113 137.378 191.681 133.984 189.194 130.628C188.881 130.203 188.85 129.8 188.744 129.368L188.753 129.359C189.397 129.419 189.678 129.915 190.056 130.356C194.875 135.972 199.106 141.969 202.188 148.728V148.715L202.194 148.712Z" fill="#9677B3"/>
<path d="M164.04 132.162C160.981 132.118 157.919 131.943 154.869 132.378C154.406 132.443 153.634 132.734 153.525 131.815C153.403 130.774 154.219 130.956 154.784 130.956C159.559 130.94 164.334 130.937 169.112 130.962C169.981 130.968 170.812 131.371 171.709 131.281C171.99 131.253 172.387 131.218 172.422 131.662C172.469 132.243 172.003 132.153 171.665 132.153C169.122 132.162 166.581 132.159 164.037 132.159L164.04 132.162Z" fill="#9677B3"/>
<path d="M162.291 98.2465C162.809 98.2465 163.334 98.3027 163.841 98.234C164.909 98.0902 165.315 98.4902 165.344 99.5871C165.397 101.465 165.456 101.465 163.531 101.393C162.344 101.346 161.153 101.325 159.969 101.221C159.531 101.184 158.606 101.609 158.809 100.628C158.994 99.7402 158.634 98.3934 160.119 98.2027C160.831 98.1121 161.566 98.1871 162.287 98.1871V98.2465H162.291Z" fill="#9677B3"/>
<path d="M312.197 100.765C312.197 98.4902 312.228 96.6715 312.181 94.8559C312.163 94.0777 312.35 93.6777 313.203 93.7527C314.372 93.8559 316.056 93.2527 316.581 94.0809C317.125 94.9402 315.653 95.9465 315.047 96.8715C314.235 98.109 313.3 99.2684 312.194 100.768L312.197 100.765Z" fill="#9677B3"/>
<path d="M161.853 48.1371C163.028 47.4903 163.769 47.7746 164.225 49.084C164.738 50.5528 165.128 52.084 165.988 53.4028C166.356 53.9684 166.172 54.2309 165.666 54.484C165.109 54.7621 164.563 55.0653 164.013 55.359C163.813 52.7965 162.434 50.5871 161.847 48.1402L161.853 48.1371Z" fill="#9677B3"/>
<path d="M161.328 91.8745C161.891 92.587 161.747 93.4776 161.791 94.2651C161.869 95.6526 162.45 96.0963 163.741 95.7557C163.616 96.212 163.166 96.1057 162.869 96.2651C162.766 96.3213 162.494 96.1745 162.578 96.5213C162.797 97.4307 162.781 97.4495 161.931 97.4713C161.109 97.4932 160.287 97.4776 159.378 97.4776C160.053 95.8432 159.725 93.9526 161.272 92.7682C161.428 92.6495 161.312 92.1776 161.325 91.8713L161.328 91.8745Z" fill="#9677B3"/>
<path d="M148.481 130.109C147.287 129.353 146.412 128.797 145.453 128.19C147.037 127.634 147.669 127.993 148.481 130.109Z" fill="#9677B3"/>
<path d="M300.919 119.631C300.844 119.544 300.772 119.456 300.697 119.369C301.797 117.703 302.894 116.038 303.994 114.375C304.116 114.453 304.235 114.531 304.356 114.609C303.353 116.372 302.278 118.091 300.919 119.631Z" fill="#9677B3"/>
<path d="M311.294 125.507C311.656 124.135 311.356 122.729 311.503 121.344C311.562 120.791 311.375 120.194 311.769 119.697C311.769 121.85 311.769 124.004 311.769 126.191C311.403 126.066 311.287 125.829 311.294 125.507Z" fill="#9677B3"/>
<path d="M274.019 154.041C274.016 151.972 274.01 149.903 274.003 147.832C274.041 147.794 274.075 147.76 274.113 147.722C274.463 149.835 274.644 151.941 274.019 154.038V154.041Z" fill="#9677B3"/>
<path d="M166.791 95.2466C167.381 94.7435 168.05 94.7716 168.744 94.9685C168.141 95.3966 167.466 95.331 166.791 95.2466Z" fill="#9677B3"/>
<path d="M311.766 119.388C311.388 118.835 311.413 118.285 311.778 117.738C311.894 118.288 311.925 118.841 311.766 119.388Z" fill="#9677B3"/>
<path d="M174.334 105.06C174.3 105.194 174.291 105.357 174.25 105.366C174.006 105.419 173.916 105.232 173.875 105.044C173.863 104.982 173.959 104.894 174.006 104.819C174.119 104.904 174.231 104.985 174.334 105.06Z" fill="#9677B3"/>
<path d="M165.1 93.9879C164.859 94.2379 164.59 94.2317 164.309 94.066C164.55 93.8254 164.812 93.7785 165.1 93.9879Z" fill="#9677B3"/>
<path d="M141.591 127.179C141.181 127.451 141 127.263 140.934 126.851C141.191 126.885 141.447 126.919 141.591 127.179Z" fill="#9677B3"/>
<path d="M202.191 148.725C202.191 148.772 202.175 148.822 202.191 148.862C202.197 148.884 202.25 148.89 202.285 148.906C202.256 148.84 202.228 148.778 202.197 148.712L202.194 148.725H202.191Z" fill="#9677B3"/>
<path d="M188.747 129.366C188.706 129.319 188.666 129.269 188.622 129.222C188.666 129.266 188.712 129.313 188.756 129.357L188.747 129.366Z" fill="#9677B3"/>
<path d="M9.21869 102.772C10.5093 102.353 11.3906 101.891 12.4249 102C11.6874 103.453 9.03119 104.269 7.77494 103.491C7.30932 103.203 7.16244 102.95 7.43744 102.366C8.01869 101.134 9.32182 100.438 9.73119 99.0657C9.87182 98.5939 10.4874 98.9251 10.8499 99.0189C11.3531 99.1501 11.8562 99.4126 11.9281 100.006C11.9843 100.466 11.5437 100.578 11.2249 100.725C10.4062 101.1 9.74057 101.616 9.21557 102.772H9.21869Z" fill="#9677B3"/>
<path d="M12.4688 128.488C8.47505 128.029 4.52817 128.879 0.518799 128.616C2.0938 127.419 4.10005 127.766 5.9063 127.151C5.38755 126.594 4.1063 126.832 4.4063 125.857C4.71255 124.86 5.75317 125.466 6.28755 125.635C8.40942 126.307 10.4688 127.169 12.5532 127.963C12.525 128.138 12.4969 128.313 12.4688 128.488Z" fill="#9677B3"/>
<path d="M7.82471 154.353C9.14033 153.907 10.3841 154.288 11.8216 154.528C10.3528 154.688 9.05596 155.128 7.82471 154.353Z" fill="#9677B3"/>
<path d="M3.46226 155.6C3.14351 154.884 2.44351 155.515 2.01538 155.193C3.18101 154.196 4.56851 154.89 5.84351 154.628C5.04663 154.996 4.42163 155.734 3.46226 155.603V155.6Z" fill="#9677B3"/>
<path d="M1.24075 155.115L1.1345 155.184L1.06262 155.074L1.16887 155.024L1.23762 155.115H1.24075Z" fill="#9677B3"/>
<path d="M183.715 54.3091C181.803 55.381 179.687 55.7091 177.568 56.0216L183.715 54.3091Z" fill="#231B40"/>
<path d="M175.372 56.7687C175.278 56.7843 175.182 56.8218 175.094 56.803C174.944 56.7687 174.938 56.6874 175.072 56.653C175.157 56.6312 175.257 56.6624 175.35 56.678C175.363 56.678 175.366 56.7374 175.372 56.7687Z" fill="#231B40"/>
<path d="M176.391 56.3037C176.478 56.335 176.563 56.3662 176.647 56.4006C176.563 56.435 176.478 56.4975 176.394 56.4975C176.31 56.4975 176.222 56.4443 176.138 56.4131C176.222 56.3756 176.303 56.3412 176.391 56.3037Z" fill="#231B40"/>
<path d="M308.85 28.6344C310.881 27.9157 312.847 27.0032 314.966 26.5344C313.35 28.1125 311.191 28.3907 309.153 28.9563C309.088 28.975 308.953 28.7469 308.85 28.6344Z" fill="#231B40"/>
<path d="M306.834 29.3746C307.315 29.1714 307.8 28.9683 308.281 28.7683C308.15 29.8058 307.387 29.3433 306.834 29.3746Z" fill="#231B40"/>
<path d="M314.944 26.5472C315.119 26.1222 315.6 26.1628 315.897 25.9253C316.1 26.9315 315.431 26.6034 314.944 26.5472Z" fill="#231B40"/>
<path d="M162.788 103.769C162.556 103.644 162.363 103.503 162.616 103.225C162.744 103.35 162.872 103.472 163 103.594C162.934 103.656 162.863 103.716 162.788 103.769Z" fill="#231B40"/>
<path d="M134.378 130.601C135.275 130.901 136.041 131.385 136.584 132.182C135.447 132.216 134.675 131.738 134.378 130.601Z" fill="#231B40"/>
<path d="M161.925 78.6121C160.2 78.634 160.7 77.5746 160.963 76.6309C161.441 78.2496 162.575 77.9965 163.778 77.6496C164.944 77.3121 166.122 77.4934 167.031 77.6152C165.506 78.009 163.609 77.6996 161.925 78.6121Z" fill="#231B40"/>
<path d="M166.606 83.7662C165.425 83.8599 164.247 83.9599 163.066 84.0412C161.891 84.1224 161.828 83.588 162.366 82.738C162.619 83.5037 163.266 83.3505 163.756 83.2068C164.828 82.8974 165.685 83.438 166.603 83.763L166.606 83.7662Z" fill="#231B40"/>
<path d="M176.434 81.7285C175.656 82.3535 174.744 81.9473 173.884 82.066C174.737 82.0254 175.578 81.9129 176.434 81.7285Z" fill="#231B40"/>
</g>
<defs>
<clipPath id="clip0_2637_11229">
<rect width="320" height="160" fill="white"/>
</clipPath>
</defs>
</svg>
