<svg width="60" height="57" viewBox="0 0 60 57" fill="none" xmlns="http://www.w3.org/2000/svg">
<path d="M10.032 0.695999H49.136V5.24H10.032V0.695999ZM7.792 0.695999H12.4V21.432C12.4 31.928 11.376 46.584 4.08 56.248C3.312 55.416 1.328 54.136 0.24 53.56C7.152 44.408 7.792 31.288 7.792 21.432V0.695999ZM47.152 0.695999H51.824C51.76 24.76 51.888 51.128 55.728 51.128C56.496 51.128 56.88 46.776 57.008 41.144C57.84 42.424 59.056 43.832 59.952 44.6C59.504 52.92 58.544 56.12 55.216 56.184C46.96 56.184 47.472 30.84 47.152 0.695999ZM27.184 12.728H31.472V48.184H27.184V12.728ZM20.016 23.544V33.4H38.896V23.544H20.016ZM16.112 19.704H42.928V37.24H16.112V19.704ZM40.88 7.608L44.336 11.064C36.784 13.112 25.2 14.328 15.536 14.84C15.408 13.816 14.832 12.216 14.256 11.192C23.664 10.552 34.8 9.336 40.88 7.608ZM12.208 47.096C19.76 46.712 31.664 45.944 43.248 45.176V49.272C32.112 50.104 20.464 50.936 12.528 51.448L12.208 47.096ZM36.336 39.992L40.048 38.776C43.376 43.064 46.64 48.888 47.728 52.92L43.76 54.328C42.672 50.424 39.536 44.408 36.336 39.992Z" fill="#B371F6"/>
</svg>
