<svg width="60" height="60" viewBox="0 0 60 60" fill="none" xmlns="http://www.w3.org/2000/svg">
<path d="M2.52 23.472H59.544V28.08H2.52V23.472ZM17.624 52.144H52.44V56.496H17.624V52.144ZM15 36.656H55.128V59.056H50.2V41.072H19.8V59.312H15V36.656ZM6.936 3.184H11.8V12.272H50.328V3.184H55.32V16.688H6.936V3.184ZM28.44 0.239998H33.368V14.768H28.44V0.239998ZM21.72 23.984L26.648 25.456C22.04 35.44 13.912 45.04 3.608 50.8C2.968 49.712 1.56 47.92 0.6 46.96C10.2 41.84 18.136 32.752 21.72 23.984Z" fill="#B371F6"/>
</svg>
