<svg width="60" height="58" viewBox="0 0 60 58" fill="none" xmlns="http://www.w3.org/2000/svg">
<path d="M29.744 4.912C24.432 12.528 14.128 21.36 3.312 27.12C2.736 25.968 1.392 24.304 0.368 23.28C11.44 17.712 22.064 8.24 26.992 0.175999H31.92C38.704 9.456 49.776 18.032 59.824 22.512C58.672 23.664 57.52 25.328 56.688 26.736C46.768 21.616 35.632 12.848 29.744 4.912ZM13.872 19.76H46V24.112H13.872V19.76ZM5.616 32.624H54.32V36.912H5.616V32.624ZM2.672 52.848H57.392V57.072H2.672V52.848ZM27.184 21.424H32.24V55.088H27.184V21.424ZM10.928 40.176L14.832 38.576C17.456 42.096 20.08 46.96 20.976 50.16L16.816 51.952C15.984 48.752 13.488 43.76 10.928 40.176ZM44.4 38.448L48.944 40.304C46.512 44.336 43.504 48.944 41.136 51.952L37.488 50.352C39.792 47.216 42.8 42.096 44.4 38.448Z" fill="#B371F6"/>
</svg>
