<svg viewBox="0 0 230 230" fill="none" xmlns="http://www.w3.org/2000/svg">
<path d="M47.6645 21.8888C44.0745 18.4188 40.7945 14.9088 37.1645 11.8088C33.5845 8.75885 29.6445 6.11884 25.8845 3.31884C25.8745 3.31884 25.9445 3.23885 26.0245 3.23885C34.1845 3.31885 42.3745 2.51885 50.4845 4.10885C55.9945 5.18885 61.2345 7.06884 66.1945 9.63884C67.8845 10.5088 69.2345 10.4788 70.9645 9.73885C86.7845 3.04885 103.284 -0.181155 120.474 0.678845C133.934 1.34885 146.884 4.39885 159.244 9.82885C160.664 10.4488 161.764 10.4788 163.174 9.76885C169.734 6.48885 176.634 4.20885 183.964 3.41885C186.194 3.17885 188.464 3.16885 190.714 3.14885C194.774 3.10885 198.844 3.13885 202.904 3.14885C203.314 3.14885 203.724 3.20885 204.504 3.26885C195.994 8.43885 188.664 14.4388 182.504 22.0388C183.064 22.5488 183.524 23.0388 184.044 23.4488C203.274 38.7688 216.954 58.0089 224.594 81.4089C228.684 93.9389 230.384 106.849 229.754 120.029C228.824 139.409 223.454 157.489 213.284 174.009C200.464 194.859 182.574 209.979 160.184 219.759C149.224 224.549 137.774 227.659 125.864 228.889C107.004 230.839 88.9145 227.709 71.4645 220.439C52.5445 212.549 36.6345 200.669 23.9545 184.549C10.8545 167.889 3.23447 148.929 0.864471 127.929C-1.97553 102.759 3.32447 79.2988 16.1745 57.4888C23.7745 44.5988 33.4045 33.5188 45.0445 24.1488C45.8045 23.5388 46.5245 22.8788 47.6745 21.8888H47.6645ZM149.814 17.7688C154.284 24.0688 154.304 27.9988 154.394 32.6888C154.564 41.1088 152.304 49.0088 149.124 56.7188C141.414 75.3988 124.004 82.4688 108.954 79.9488C99.4645 78.3588 91.5545 73.9489 85.9245 66.0788C78.3545 55.4888 75.0245 43.5388 75.4445 30.5488C75.5945 26.0088 76.9045 21.8888 79.8645 18.3588C80.0045 18.1888 80.0945 17.9788 80.2745 17.6588C79.6345 17.7188 79.1445 17.7488 78.6645 17.8088C73.7045 18.3488 68.9945 17.7488 64.3745 15.5888C59.9645 13.5288 55.2945 11.9888 50.7245 10.2788C49.7245 9.90884 48.6445 9.73885 47.5845 9.53885C46.5345 9.33885 45.4645 9.21885 44.0245 8.99885C49.4145 13.6188 53.7745 18.5288 57.2945 24.1888C61.9045 31.6088 64.8245 39.7488 67.4545 48.0088C70.0445 56.1388 73.0345 64.0688 77.7145 71.2788C82.9045 79.2688 89.5045 85.4889 98.6445 88.6689C106.474 91.3889 114.514 92.0089 122.674 90.7489C128.664 89.8189 134.394 87.9888 139.434 84.4888C147.644 78.7788 153.254 70.9288 157.054 61.8488C159.914 54.9988 162.234 47.9188 164.704 40.9088C168.404 30.3888 173.574 20.7788 181.574 12.8488C182.844 11.5888 183.954 10.1588 185.144 8.79884C185.244 9.00884 185.074 9.02884 184.904 9.04884C177.904 10.0488 171.354 12.3788 165.024 15.4788C162.944 16.4988 160.664 17.3688 158.394 17.6788C155.614 18.0588 152.744 17.7688 149.804 17.7688H149.814ZM53.6045 110.649C50.0445 105.769 45.7345 101.279 40.7545 97.4088C47.3245 98.2488 47.1945 97.4888 49.9745 93.0788C50.7645 91.8188 51.6045 90.5788 52.5245 89.1588C54.3545 90.5488 56.0645 91.7788 57.6845 93.0988C59.2645 94.3888 60.7645 95.7888 62.4745 97.2988C60.6345 92.1588 57.4345 88.1388 54.2745 84.1088C54.3745 84.0089 54.4845 83.9188 54.5845 83.8188C57.5745 85.8288 60.5645 87.8388 63.5545 89.8488C63.6745 89.7388 63.7845 89.6288 63.9045 89.5188C61.1445 86.1488 58.3845 82.7788 55.4845 79.2388C58.7245 81.0688 61.8145 82.8288 64.7745 84.4988C65.6345 81.8388 63.6045 80.6989 61.9345 79.4089C53.1245 72.6189 43.3845 67.6488 32.7545 64.3788C31.5045 63.9988 30.9345 64.3088 30.2845 65.3088C24.1645 74.6188 19.1045 84.4589 15.2445 94.9189C15.0545 95.4489 14.9345 95.9988 14.7545 96.5988C16.6545 97.2888 18.4545 97.7888 20.1145 98.5889C27.2745 102.069 34.4145 105.609 41.5245 109.199C45.4045 111.149 49.2645 113.159 53.0445 115.289C54.6145 116.179 55.9645 117.459 57.4145 118.559C53.1545 113.119 47.5545 109.169 42.4945 104.509C46.2545 106.579 50.0045 108.659 53.6145 110.649H53.6045ZM172.104 118.299C172.194 118.389 172.284 118.479 172.374 118.579C174.404 117.069 176.314 115.329 178.494 114.099C182.574 111.789 186.854 109.829 190.984 107.599C198.564 103.509 206.114 99.3788 214.384 96.7888C214.594 96.7188 214.774 96.5588 215.004 96.4288C214.904 96.0688 214.844 95.7888 214.744 95.5188C214.144 93.9188 213.534 92.3188 212.914 90.7188C209.374 81.5488 204.824 72.9088 199.194 64.8488C198.634 64.0488 198.154 63.8788 197.284 64.2088C195.914 64.7288 194.504 65.1488 193.114 65.6189C183.394 68.9688 174.564 73.9188 166.634 80.4688C165.324 81.5489 164.494 82.6589 165.154 84.3689C168.234 82.6689 171.334 80.9588 174.424 79.2488C171.604 82.7688 168.474 85.9089 166.264 89.7789C167.874 88.7789 169.334 87.6189 170.884 86.6088C172.414 85.6088 174.044 84.7488 175.624 83.8188C175.694 83.9288 175.774 84.0288 175.844 84.1388C172.374 87.9488 169.504 92.1389 167.574 96.8389C170.794 94.2389 174.034 91.6288 177.344 88.9688C178.974 91.4688 180.334 93.6088 181.734 95.7289C182.604 97.0388 183.774 97.7989 185.434 97.6488C186.644 97.5388 187.854 97.4888 189.254 97.4088C187.964 98.4788 186.744 99.4289 185.594 100.449C184.464 101.459 183.364 102.499 182.304 103.589C181.214 104.709 180.164 105.879 179.154 107.069C178.184 108.199 177.284 109.389 176.464 110.429C180.084 108.449 183.734 106.449 187.384 104.439C187.464 104.569 187.534 104.699 187.614 104.829C184.954 106.929 182.204 108.929 179.644 111.149C177.034 113.419 174.624 115.919 172.124 118.319L172.104 118.299ZM139.174 98.4688C143.824 96.2788 148.364 94.1389 152.904 91.9989C152.834 91.8289 152.754 91.6588 152.684 91.4888C152.134 91.6388 151.594 91.7988 151.044 91.9388C148.914 92.4988 146.804 93.1188 144.664 93.5988C143.654 93.8288 142.544 93.9388 141.824 92.7688C144.824 90.9488 147.754 89.1689 150.684 87.3889C150.634 87.2489 150.574 87.1189 150.524 86.9789C126.654 101.449 102.824 102.039 79.0545 86.7589L78.9045 87.1288C81.8745 88.9588 84.8445 90.7989 87.8345 92.6488C87.3145 93.6589 86.4645 94.0089 85.2345 93.5988C84.3645 93.2988 83.4345 93.1588 82.5345 92.9388C81.6345 92.7188 80.7345 92.4889 79.8345 92.2589C78.9545 92.0288 78.0845 91.7788 77.2045 91.5388C77.1445 91.7188 77.0745 91.8988 77.0145 92.0788C81.7245 94.2188 86.4345 96.3489 91.0645 98.4489C85.7945 98.8089 80.6045 97.4988 75.3945 96.3988C75.3345 96.5889 75.2745 96.7788 75.2145 96.9688C80.5045 99.1388 85.8045 101.309 90.9045 103.399C83.8045 102.719 76.4545 102.019 69.1145 101.319C95.3945 111.599 134.364 111.679 160.584 101.359C153.204 102.049 145.824 102.739 138.434 103.429C144.194 101.709 149.734 99.5388 154.884 96.4288C149.704 97.5188 144.554 98.6389 139.184 98.4789L139.174 98.4688ZM110.714 140.089C109.054 138.599 107.724 137.309 106.284 136.159C105.834 135.799 105.044 135.629 104.464 135.699C100.974 136.169 97.5045 136.769 94.0245 137.239C93.3645 137.329 92.5645 137.169 91.9745 136.859C88.5945 135.099 85.2645 133.239 81.8945 131.459C80.0545 130.489 78.1645 129.599 76.2945 128.679C76.2145 128.809 76.1345 128.939 76.0445 129.069C78.2445 131.149 80.4345 133.239 82.6345 135.319C83.9845 136.589 85.6445 137.659 86.6245 139.169C89.0445 142.879 91.1545 146.799 93.3445 150.559C91.0245 154.319 88.7445 157.979 87.4945 162.159C87.7645 162.149 87.8845 162.059 87.9745 161.949C88.5845 161.179 89.1545 160.389 89.7845 159.639C93.8045 154.889 96.5945 148.949 103.004 146.369C101.784 144.679 100.644 143.109 99.4245 141.429C100.824 140.309 102.224 139.189 103.564 138.109C106.154 140.649 108.754 142.969 111.074 145.539C113.034 147.719 116.454 147.909 118.514 145.609C120.854 142.999 123.434 140.599 126.044 137.969C127.554 139.169 128.974 140.299 130.294 141.359C128.984 143.129 127.814 144.719 126.504 146.489C129.764 147.309 131.904 149.229 133.694 151.639C135.354 153.879 137.084 156.069 138.794 158.269C139.814 159.579 140.844 160.869 141.874 162.169C141.994 162.089 142.114 162.009 142.234 161.929C140.754 157.899 138.664 154.179 136.234 150.629C137.174 149.109 138.204 147.679 138.994 146.119C141.294 141.569 144.124 137.509 148.244 134.359C150.274 132.809 151.944 130.789 153.784 128.989C153.694 128.889 153.614 128.779 153.524 128.679C152.384 129.219 151.234 129.729 150.114 130.309C146.114 132.369 142.104 134.409 138.144 136.549C136.894 137.219 135.694 137.339 134.344 137.119C131.204 136.619 128.064 136.159 124.914 135.769C124.374 135.699 123.664 135.909 123.244 136.249C121.814 137.399 120.484 138.659 118.774 140.179V127.649H110.724V140.099L110.714 140.089ZM108.554 48.2188C107.844 49.7788 107.194 51.0288 106.694 52.3388C104.454 58.2088 102.924 64.2588 102.404 70.5288C102.364 70.9788 102.574 71.7788 102.854 71.8788C104.884 72.6088 106.964 73.2088 109.154 73.8888C108.464 69.6588 108.994 67.6988 111.184 66.2088C113.364 64.7288 115.704 64.5089 117.944 65.9288C120.854 67.7788 121.514 70.4888 120.134 73.9288C122.474 73.2388 124.494 72.6889 126.474 71.9988C126.864 71.8689 127.344 71.1588 127.304 70.7788C126.534 63.8488 125.144 57.0588 122.374 50.6188C122.034 49.8388 121.554 49.1188 121.044 48.2188C119.844 49.1588 118.834 49.9588 117.624 50.8988C118.094 45.1788 117.464 39.8288 114.904 34.7988C112.384 39.8988 111.454 45.2488 112.164 51.0688C110.864 50.0388 109.844 49.2288 108.544 48.2088L108.554 48.2188ZM104.034 168.899C104.064 168.989 104.104 169.069 104.134 169.159C102.994 170.409 101.884 171.699 100.684 172.909C99.9745 173.619 99.9945 174.199 100.624 174.889C101.844 176.219 103.044 177.569 104.244 178.919C104.984 179.749 105.844 179.899 106.864 179.489C109.284 178.529 111.744 178.029 114.404 178.049C117.384 178.069 120.214 178.389 122.994 179.439C123.564 179.659 124.594 179.599 124.984 179.229C126.694 177.589 128.254 175.789 129.874 174.039C128.244 172.249 126.844 170.709 125.134 168.819C127.784 169.529 130.024 170.129 132.594 170.819C131.644 169.489 130.994 168.379 130.164 167.439C128.494 165.549 126.554 164.409 123.804 164.479C117.544 164.649 111.284 164.529 105.024 164.549C104.354 164.549 103.614 164.559 103.024 164.819C100.274 166.009 98.4545 168.129 97.1145 170.829C99.4945 170.159 101.764 169.529 104.024 168.899H104.034ZM63.9545 110.199C97.9545 122.439 131.704 122.209 165.454 110.389C148.634 112.099 131.894 114.679 114.904 114.699C97.8745 114.719 81.0845 112.079 63.9545 110.209V110.199ZM156.794 192.579C156.714 192.469 156.634 192.349 156.554 192.239C156.124 192.559 155.704 192.869 155.274 193.189C149.154 197.839 143.054 202.489 136.154 205.989C123.504 212.399 110.634 213.669 97.3545 208.049C90.5245 205.159 84.5245 200.969 78.6845 196.489C76.8845 195.109 75.0645 193.769 73.2545 192.409C73.1845 192.519 73.1145 192.629 73.0445 192.739C83.4745 206.549 96.6045 215.949 114.614 215.909C132.774 215.869 146.244 206.669 156.784 192.579H156.794ZM40.0245 152.459C39.1145 155.589 38.5245 158.799 37.2645 161.719C35.7845 165.149 36.8845 167.629 39.2145 169.949C40.2545 170.979 41.2945 172.029 42.4745 172.889C43.7545 173.819 45.1845 174.529 46.5445 175.329C47.7245 169.719 48.8445 164.359 49.9545 159.099C48.1745 158.129 46.3845 157.309 44.7745 156.229C43.1645 155.159 41.7245 153.829 40.0245 152.459ZM183.484 175.049C186.544 173.879 188.994 171.799 191.204 169.319C193.114 167.179 194.104 164.969 192.704 162.189C192.594 161.979 192.594 161.709 192.524 161.479C191.614 158.459 190.694 155.449 189.774 152.429C188.074 153.809 186.644 155.159 185.024 156.239C183.414 157.319 181.614 158.119 179.914 159.039C181.094 164.359 182.284 169.679 183.474 175.059L183.484 175.049ZM159.044 157.159C158.474 157.859 158.004 158.419 157.564 158.999C149.134 169.819 139.404 178.949 126.034 183.379C125.714 183.489 125.334 183.809 125.224 184.109C124.764 185.409 124.394 186.739 123.984 188.109C136.724 186.829 157.044 168.929 159.044 157.159ZM68.0545 121.519C64.7345 134.789 79.7745 167.149 92.6445 174.239C92.4245 173.949 92.2945 173.759 92.1445 173.579C85.6145 165.749 80.0045 157.299 76.5045 147.699C73.3645 139.079 70.8345 130.239 68.0445 121.529L68.0545 121.519ZM70.7445 157.379C73.6145 169.499 93.6545 187.319 105.214 187.979C104.984 187.119 104.664 186.299 104.564 185.449C104.414 184.049 103.664 183.399 102.374 182.939C93.4245 179.779 85.9245 174.419 79.5545 167.459C76.5545 164.189 73.7145 160.779 70.7545 157.379H70.7445ZM137.464 173.869C147.914 166.529 153.924 155.789 157.964 143.749C160.234 136.979 162.474 130.149 161.524 122.759C160.364 125.059 159.144 127.369 158.624 129.829C155.944 142.299 151.494 154.009 144.294 164.589C142.084 167.839 139.634 170.929 137.464 173.869ZM174.394 140.089C175.874 144.859 177.354 149.639 178.864 154.519C181.954 153.059 184.844 151.549 187.184 149.199C187.564 148.809 187.964 148.029 187.824 147.599C186.464 143.289 184.994 139.019 183.604 134.849C180.454 136.649 177.494 138.329 174.394 140.099V140.089ZM46.2045 135.009C44.8345 139.149 43.4145 143.389 42.0645 147.659C41.9545 148.019 42.1645 148.639 42.4345 148.929C44.8845 151.509 47.9345 153.159 51.2145 154.529C52.6645 149.629 54.0745 144.879 55.4245 140.319C52.3145 138.529 49.3645 136.839 46.2045 135.019V135.009ZM194.674 170.159C192.164 174.559 188.854 177.429 184.764 179.429C184.484 179.569 184.164 180.119 184.224 180.409C184.814 183.449 185.474 186.479 186.124 189.549C186.254 189.509 186.434 189.509 186.504 189.419C189.764 185.669 193.034 181.929 196.244 178.139C196.504 177.829 196.594 177.199 196.494 176.779C195.984 174.709 195.374 172.659 194.684 170.149L194.674 170.159ZM35.1045 170.349C34.8645 171.349 34.8145 172.109 34.5045 172.729C32.6645 176.359 33.7245 179.309 36.4145 182.039C38.8645 184.529 41.1845 187.159 43.8345 190.019C44.5345 186.329 45.1345 183.139 45.7445 179.899C41.2045 177.909 37.8445 174.679 35.1145 170.359L35.1045 170.349ZM132.014 69.4588C133.454 68.2888 135.004 67.1088 136.434 65.8088C136.764 65.5088 136.914 64.6988 136.764 64.2488C135.334 59.9888 133.844 55.7588 132.324 51.5288C132.174 51.1088 131.804 50.5588 131.424 50.4588C129.754 50.0188 128.054 49.7188 126.534 49.4088C128.354 56.0788 130.154 62.6388 132.014 69.4588ZM97.6945 69.4789C99.5545 62.6389 101.344 56.0388 103.134 49.4388C101.974 49.6888 100.614 50.0288 99.2345 50.2488C98.2745 50.4088 97.6445 50.8188 97.3145 51.7588C95.8445 55.9888 94.3345 60.2088 92.8645 64.4388C92.7645 64.7288 92.7245 65.2488 92.8945 65.3888C94.5045 66.8188 96.1745 68.1889 97.6945 69.4688V69.4789ZM131.694 162.929C130.334 160.749 129.234 158.869 128.004 157.079C127.744 156.699 127.034 156.499 126.514 156.459C123.174 156.259 120.014 156.799 117.334 159.019C117.114 159.199 116.824 159.299 116.564 159.439C115.364 160.099 114.214 160.229 112.984 159.439C111.714 158.619 110.384 157.889 109.054 157.169C108.554 156.899 107.984 156.669 107.434 156.629C105.974 156.529 104.504 156.509 103.034 156.519C102.584 156.519 101.914 156.589 101.714 156.889C100.464 158.749 99.3145 160.679 98.1845 162.509C100.764 161.869 103.184 160.869 105.644 160.739C110.954 160.449 116.294 160.639 121.624 160.549C124.404 160.499 127.074 160.819 129.564 162.149C130.104 162.439 130.714 162.589 131.684 162.939L131.694 162.929ZM56.7245 135.509C57.4245 133.389 58.0545 131.659 58.5345 129.879C58.6345 129.529 58.3045 128.889 57.9745 128.639C56.6545 127.639 55.2545 126.749 53.8945 125.799C52.9945 125.169 52.1245 124.519 51.0845 123.759C50.0745 126.119 49.1245 128.249 48.2845 130.419C48.1645 130.719 48.5145 131.449 48.8345 131.619C51.3745 132.939 53.9645 134.159 56.7145 135.509H56.7245ZM178.484 123.759C175.924 125.549 173.544 127.229 171.094 128.949C171.804 131.089 172.484 133.139 173.244 135.429C176.224 133.929 179.014 132.519 181.894 131.059C180.704 128.509 179.654 126.259 178.484 123.759ZM119.044 183.029H110.194C110.364 184.789 110.464 186.339 110.694 187.869C110.744 188.199 111.234 188.689 111.544 188.709C113.494 188.819 115.444 188.859 117.384 188.799C117.754 188.789 118.364 188.299 118.434 187.949C118.724 186.339 118.854 184.689 119.044 183.029ZM50.8145 191.309C52.0945 192.639 52.1045 192.659 53.2445 192.289C58.6045 190.509 63.7145 188.209 68.4145 185.049C69.4145 184.379 69.5545 183.719 68.7045 182.949C65.7245 184.549 62.9045 186.219 59.9445 187.609C56.9845 188.989 53.8945 190.089 50.8145 191.329V191.309ZM179.214 191.219C172.584 189.369 166.684 186.399 161.064 182.879C159.904 183.959 160.504 184.579 161.454 185.199C166.064 188.219 171.074 190.359 176.224 192.249C177.584 192.749 178.294 192.119 179.214 191.219ZM89.3445 62.4288C90.5945 58.9588 91.6945 55.8788 92.9545 52.3688C90.3145 53.6588 88.0945 54.7388 85.7145 55.8988C86.9545 58.1388 88.0545 60.1188 89.3445 62.4288ZM137.354 52.6788C137.264 52.7988 137.174 52.9188 137.084 53.0388C138.144 56.0188 139.194 58.9888 140.354 62.2588C141.704 60.0388 142.854 58.1488 144.144 56.0288C141.724 54.8388 139.534 53.7588 137.354 52.6788ZM117.714 71.6189C117.714 69.8689 116.354 68.4088 114.744 68.4188C113.174 68.4188 111.804 69.8688 111.834 71.4888C111.864 73.2088 113.124 74.4688 114.804 74.4588C116.444 74.4588 117.724 73.2088 117.714 71.6088V71.6189ZM130.154 133.409C135.674 135.369 140.554 132.819 144.914 128.789C139.814 130.389 134.644 132.009 130.154 133.409ZM84.7845 128.809C88.9045 132.669 93.5645 135.419 99.0745 133.389C94.6345 131.969 89.6445 130.369 84.7845 128.809ZM134.874 199.119C139.014 197.649 142.824 195.659 145.634 192.139C142.044 194.469 138.464 196.789 134.874 199.119ZM94.3445 199.149C90.8745 196.779 87.4045 194.409 83.9345 192.049C86.6045 195.579 90.3245 197.559 94.3445 199.149Z" fill="black"/>
</svg>
