<svg viewBox="0 0 1032 145" fill="none" xmlns="http://www.w3.org/2000/svg">
<path d="M57.8 59.4C110.2 59.4 110.2 59.8 110.2 102C110.2 143.2 110.2 143.6 47.2 144.6C35.8 144.6 16.2 144.6 0.200001 144.6V124C33.8 124 37.8 124 46.8 124C83.8 123.6 84.8 123.6 84.8 103.6C84.8 81 84.8 81 57.8 81C0.200001 81 0.8 81 0.8 44.4C0.8 1.19999 0.8 1.6 68.2 1.6C79.8 1.6 93.8 1.19999 109.8 1.19999L102.8 22.2C69.2 22.2 77.2 22.2 68.2 22.2C26.8 22.2 26.8 22.8 26.8 42.8C26.2 58.8 26.2 59.4 57.8 59.4ZM142.052 144.2L210.052 0.599988H210.652L278.652 144.2H251.052L210.652 61.2H210.052L169.652 144.2H142.052ZM310.898 144.8L322.498 0.799997L390.498 74.2H390.898L458.898 0.799997L470.498 144.8H442.898L435.898 60L390.898 110C390.898 110.4 390.498 111.2 390.498 110.8L345.898 61.2L338.898 144.8H310.898ZM610.311 0.999994H637.911V88.4C637.911 144.4 638.311 145 577.311 145C517.911 145 517.311 144.4 517.311 88.4V0.999994H544.911C544.911 0.999994 544.911 67.4 544.911 89C544.911 119.4 544.911 119.4 577.311 119.4C610.311 119.4 610.311 119.4 610.311 89C610.311 67.4 610.311 0.999994 610.311 0.999994ZM759.064 87.4L796.064 145H765.064L730.664 87.4H713.664V145H686.064V64.4H749.664C772.064 64.4 771.664 64.4 771.664 45.4C771.664 22.4 771.664 22.4 749.664 22.4H686.664V1.39999H752.664C796.064 1.39999 796.064 1.99999 796.064 43C796.064 87 796.064 87.4 759.064 87.4ZM830.645 144.2L898.645 0.599988H899.245L967.245 144.2H939.645L899.245 61.2H898.645L858.245 144.2H830.645ZM1031.3 0.999994V144.8H1003.7V0.999994H1031.3Z" fill="black"/>
</svg>
