<svg width="1472" height="320" viewBox="0 0 1472 320" fill="none" xmlns="http://www.w3.org/2000/svg">
<rect width="1472" height="320" fill="white"/>
<path d="M92.6645 66.8888C89.0745 63.4188 85.7945 59.9088 82.1645 56.8088C78.5845 53.7588 74.6445 51.1188 70.8845 48.3188C70.8745 48.3188 70.9445 48.2388 71.0245 48.2388C79.1845 48.3188 87.3745 47.5188 95.4845 49.1088C100.994 50.1888 106.234 52.0688 111.194 54.6388C112.884 55.5088 114.234 55.4788 115.964 54.7388C131.784 48.0488 148.284 44.8188 165.474 45.6788C178.934 46.3488 191.884 49.3988 204.244 54.8288C205.664 55.4488 206.764 55.4788 208.174 54.7688C214.734 51.4888 221.634 49.2088 228.964 48.4188C231.194 48.1788 233.464 48.1688 235.714 48.1488C239.774 48.1088 243.844 48.1388 247.904 48.1488C248.314 48.1488 248.724 48.2088 249.504 48.2688C240.994 53.4388 233.664 59.4388 227.504 67.0388C228.064 67.5488 228.524 68.0388 229.044 68.4488C248.274 83.7688 261.954 103.009 269.594 126.409C273.684 138.939 275.384 151.849 274.754 165.029C273.824 184.409 268.454 202.489 258.284 219.009C245.464 239.859 227.574 254.979 205.184 264.759C194.224 269.549 182.774 272.659 170.864 273.889C152.004 275.839 133.914 272.709 116.464 265.439C97.5445 257.549 81.6345 245.669 68.9545 229.549C55.8545 212.889 48.2345 193.929 45.8645 172.929C43.0245 147.759 48.3245 124.299 61.1745 102.489C68.7745 89.5988 78.4045 78.5188 90.0445 69.1488C90.8045 68.5388 91.5245 67.8788 92.6745 66.8888H92.6645ZM194.814 62.7688C199.284 69.0688 199.304 72.9988 199.394 77.6888C199.564 86.1088 197.304 94.0088 194.124 101.719C186.414 120.399 169.004 127.469 153.954 124.949C144.464 123.359 136.554 118.949 130.924 111.079C123.354 100.489 120.024 88.5388 120.444 75.5488C120.594 71.0088 121.904 66.8888 124.864 63.3588C125.004 63.1888 125.094 62.9788 125.274 62.6588C124.634 62.7188 124.144 62.7488 123.664 62.8088C118.704 63.3488 113.994 62.7488 109.374 60.5888C104.964 58.5288 100.294 56.9888 95.7245 55.2788C94.7245 54.9088 93.6445 54.7388 92.5845 54.5388C91.5345 54.3388 90.4645 54.2188 89.0245 53.9988C94.4145 58.6188 98.7745 63.5288 102.294 69.1888C106.904 76.6088 109.824 84.7488 112.454 93.0088C115.044 101.139 118.034 109.069 122.714 116.279C127.904 124.269 134.504 130.489 143.644 133.669C151.474 136.389 159.514 137.009 167.674 135.749C173.664 134.819 179.394 132.989 184.434 129.489C192.644 123.779 198.254 115.929 202.054 106.849C204.914 99.9988 207.234 92.9188 209.704 85.9088C213.404 75.3888 218.574 65.7788 226.574 57.8488C227.844 56.5888 228.954 55.1588 230.144 53.7988C230.244 54.0088 230.074 54.0288 229.904 54.0488C222.904 55.0488 216.354 57.3788 210.024 60.4788C207.944 61.4988 205.664 62.3688 203.394 62.6788C200.614 63.0588 197.744 62.7688 194.804 62.7688H194.814ZM98.6045 155.649C95.0445 150.769 90.7345 146.279 85.7545 142.409C92.3245 143.249 92.1945 142.489 94.9745 138.079C95.7645 136.819 96.6045 135.579 97.5245 134.159C99.3545 135.549 101.064 136.779 102.684 138.099C104.264 139.389 105.764 140.789 107.474 142.299C105.634 137.159 102.434 133.139 99.2745 129.109C99.3745 129.009 99.4845 128.919 99.5845 128.819C102.574 130.829 105.564 132.839 108.554 134.849C108.674 134.739 108.784 134.629 108.904 134.519C106.144 131.149 103.384 127.779 100.484 124.239C103.724 126.069 106.814 127.829 109.774 129.499C110.634 126.839 108.604 125.699 106.934 124.409C98.1245 117.619 88.3845 112.649 77.7545 109.379C76.5045 108.999 75.9345 109.309 75.2845 110.309C69.1645 119.619 64.1045 129.459 60.2445 139.919C60.0545 140.449 59.9345 140.999 59.7545 141.599C61.6545 142.289 63.4545 142.789 65.1145 143.589C72.2745 147.069 79.4145 150.609 86.5245 154.199C90.4045 156.149 94.2645 158.159 98.0445 160.289C99.6145 161.179 100.964 162.459 102.414 163.559C98.1545 158.119 92.5545 154.169 87.4945 149.509C91.2545 151.579 95.0045 153.659 98.6145 155.649H98.6045ZM217.104 163.299C217.194 163.389 217.284 163.479 217.374 163.579C219.404 162.069 221.314 160.329 223.494 159.099C227.574 156.789 231.854 154.829 235.984 152.599C243.564 148.509 251.114 144.379 259.384 141.789C259.594 141.719 259.774 141.559 260.004 141.429C259.904 141.069 259.844 140.789 259.744 140.519C259.144 138.919 258.534 137.319 257.914 135.719C254.374 126.549 249.824 117.909 244.194 109.849C243.634 109.049 243.154 108.879 242.284 109.209C240.914 109.729 239.504 110.149 238.114 110.619C228.394 113.969 219.564 118.919 211.634 125.469C210.324 126.549 209.494 127.659 210.154 129.369C213.234 127.669 216.334 125.959 219.424 124.249C216.604 127.769 213.474 130.909 211.264 134.779C212.874 133.779 214.334 132.619 215.884 131.609C217.414 130.609 219.044 129.749 220.624 128.819C220.694 128.929 220.774 129.029 220.844 129.139C217.374 132.949 214.504 137.139 212.574 141.839C215.794 139.239 219.034 136.629 222.344 133.969C223.974 136.469 225.334 138.609 226.734 140.729C227.604 142.039 228.774 142.799 230.434 142.649C231.644 142.539 232.854 142.489 234.254 142.409C232.964 143.479 231.744 144.429 230.594 145.449C229.464 146.459 228.364 147.499 227.304 148.589C226.214 149.709 225.164 150.879 224.154 152.069C223.184 153.199 222.284 154.389 221.464 155.429C225.084 153.449 228.734 151.449 232.384 149.439C232.464 149.569 232.534 149.699 232.614 149.829C229.954 151.929 227.204 153.929 224.644 156.149C222.034 158.419 219.624 160.919 217.124 163.319L217.104 163.299ZM184.174 143.469C188.824 141.279 193.364 139.139 197.904 136.999C197.834 136.829 197.754 136.659 197.684 136.489C197.134 136.639 196.594 136.799 196.044 136.939C193.914 137.499 191.804 138.119 189.664 138.599C188.654 138.829 187.544 138.939 186.824 137.769C189.824 135.949 192.754 134.169 195.684 132.389C195.634 132.249 195.574 132.119 195.524 131.979C171.654 146.449 147.824 147.039 124.054 131.759L123.904 132.129C126.874 133.959 129.844 135.799 132.834 137.649C132.314 138.659 131.464 139.009 130.234 138.599C129.364 138.299 128.434 138.159 127.534 137.939C126.634 137.719 125.734 137.489 124.834 137.259C123.954 137.029 123.084 136.779 122.204 136.539C122.144 136.719 122.074 136.899 122.014 137.079C126.724 139.219 131.434 141.349 136.064 143.449C130.794 143.809 125.604 142.499 120.394 141.399C120.334 141.589 120.274 141.779 120.214 141.969C125.504 144.139 130.804 146.309 135.904 148.399C128.804 147.719 121.454 147.019 114.114 146.319C140.394 156.599 179.364 156.679 205.584 146.359C198.204 147.049 190.824 147.739 183.434 148.429C189.194 146.709 194.734 144.539 199.884 141.429C194.704 142.519 189.554 143.639 184.184 143.479L184.174 143.469ZM155.714 185.089C154.054 183.599 152.724 182.309 151.284 181.159C150.834 180.799 150.044 180.629 149.464 180.699C145.974 181.169 142.504 181.769 139.024 182.239C138.364 182.329 137.564 182.169 136.974 181.859C133.594 180.099 130.264 178.239 126.894 176.459C125.054 175.489 123.164 174.599 121.294 173.679C121.214 173.809 121.134 173.939 121.044 174.069C123.244 176.149 125.434 178.239 127.634 180.319C128.984 181.589 130.644 182.659 131.624 184.169C134.044 187.879 136.154 191.799 138.344 195.559C136.024 199.319 133.744 202.979 132.494 207.159C132.764 207.149 132.884 207.059 132.974 206.949C133.584 206.179 134.154 205.389 134.784 204.639C138.804 199.889 141.594 193.949 148.004 191.369C146.784 189.679 145.644 188.109 144.424 186.429C145.824 185.309 147.224 184.189 148.564 183.109C151.154 185.649 153.754 187.969 156.074 190.539C158.034 192.719 161.454 192.909 163.514 190.609C165.854 187.999 168.434 185.599 171.044 182.969C172.554 184.169 173.974 185.299 175.294 186.359C173.984 188.129 172.814 189.719 171.504 191.489C174.764 192.309 176.904 194.229 178.694 196.639C180.354 198.879 182.084 201.069 183.794 203.269C184.814 204.579 185.844 205.869 186.874 207.169C186.994 207.089 187.114 207.009 187.234 206.929C185.754 202.899 183.664 199.179 181.234 195.629C182.174 194.109 183.204 192.679 183.994 191.119C186.294 186.569 189.124 182.509 193.244 179.359C195.274 177.809 196.944 175.789 198.784 173.989C198.694 173.889 198.614 173.779 198.524 173.679C197.384 174.219 196.234 174.729 195.114 175.309C191.114 177.369 187.104 179.409 183.144 181.549C181.894 182.219 180.694 182.339 179.344 182.119C176.204 181.619 173.064 181.159 169.914 180.769C169.374 180.699 168.664 180.909 168.244 181.249C166.814 182.399 165.484 183.659 163.774 185.179V172.649H155.724V185.099L155.714 185.089ZM153.554 93.2188C152.844 94.7788 152.194 96.0288 151.694 97.3388C149.454 103.209 147.924 109.259 147.404 115.529C147.364 115.979 147.574 116.779 147.854 116.879C149.884 117.609 151.964 118.209 154.154 118.889C153.464 114.659 153.994 112.699 156.184 111.209C158.364 109.729 160.704 109.509 162.944 110.929C165.854 112.779 166.514 115.489 165.134 118.929C167.474 118.239 169.494 117.689 171.474 116.999C171.864 116.869 172.344 116.159 172.304 115.779C171.534 108.849 170.144 102.059 167.374 95.6188C167.034 94.8388 166.554 94.1188 166.044 93.2188C164.844 94.1588 163.834 94.9588 162.624 95.8988C163.094 90.1788 162.464 84.8288 159.904 79.7988C157.384 84.8988 156.454 90.2488 157.164 96.0688C155.864 95.0388 154.844 94.2288 153.544 93.2088L153.554 93.2188ZM149.034 213.899C149.064 213.989 149.104 214.069 149.134 214.159C147.994 215.409 146.884 216.699 145.684 217.909C144.974 218.619 144.994 219.199 145.624 219.889C146.844 221.219 148.044 222.569 149.244 223.919C149.984 224.749 150.844 224.899 151.864 224.489C154.284 223.529 156.744 223.029 159.404 223.049C162.384 223.069 165.214 223.389 167.994 224.439C168.564 224.659 169.594 224.599 169.984 224.229C171.694 222.589 173.254 220.789 174.874 219.039C173.244 217.249 171.844 215.709 170.134 213.819C172.784 214.529 175.024 215.129 177.594 215.819C176.644 214.489 175.994 213.379 175.164 212.439C173.494 210.549 171.554 209.409 168.804 209.479C162.544 209.649 156.284 209.529 150.024 209.549C149.354 209.549 148.614 209.559 148.024 209.819C145.274 211.009 143.454 213.129 142.114 215.829C144.494 215.159 146.764 214.529 149.024 213.899H149.034ZM108.954 155.199C142.954 167.439 176.704 167.209 210.454 155.389C193.634 157.099 176.894 159.679 159.904 159.699C142.874 159.719 126.084 157.079 108.954 155.209V155.199ZM201.794 237.579C201.714 237.469 201.634 237.349 201.554 237.239C201.124 237.559 200.704 237.869 200.274 238.189C194.154 242.839 188.054 247.489 181.154 250.989C168.504 257.399 155.634 258.669 142.354 253.049C135.524 250.159 129.524 245.969 123.684 241.489C121.884 240.109 120.064 238.769 118.254 237.409C118.184 237.519 118.114 237.629 118.044 237.739C128.474 251.549 141.604 260.949 159.614 260.909C177.774 260.869 191.244 251.669 201.784 237.579H201.794ZM85.0245 197.459C84.1145 200.589 83.5245 203.799 82.2645 206.719C80.7845 210.149 81.8845 212.629 84.2145 214.949C85.2545 215.979 86.2945 217.029 87.4745 217.889C88.7545 218.819 90.1845 219.529 91.5445 220.329C92.7245 214.719 93.8445 209.359 94.9545 204.099C93.1745 203.129 91.3845 202.309 89.7745 201.229C88.1645 200.159 86.7245 198.829 85.0245 197.459ZM228.484 220.049C231.544 218.879 233.994 216.799 236.204 214.319C238.114 212.179 239.104 209.969 237.704 207.189C237.594 206.979 237.594 206.709 237.524 206.479C236.614 203.459 235.694 200.449 234.774 197.429C233.074 198.809 231.644 200.159 230.024 201.239C228.414 202.319 226.614 203.119 224.914 204.039C226.094 209.359 227.284 214.679 228.474 220.059L228.484 220.049ZM204.044 202.159C203.474 202.859 203.004 203.419 202.564 203.999C194.134 214.819 184.404 223.949 171.034 228.379C170.714 228.489 170.334 228.809 170.224 229.109C169.764 230.409 169.394 231.739 168.984 233.109C181.724 231.829 202.044 213.929 204.044 202.159ZM113.054 166.519C109.734 179.789 124.774 212.149 137.644 219.239C137.424 218.949 137.294 218.759 137.144 218.579C130.614 210.749 125.004 202.299 121.504 192.699C118.364 184.079 115.834 175.239 113.044 166.529L113.054 166.519ZM115.744 202.379C118.614 214.499 138.654 232.319 150.214 232.979C149.984 232.119 149.664 231.299 149.564 230.449C149.414 229.049 148.664 228.399 147.374 227.939C138.424 224.779 130.924 219.419 124.554 212.459C121.554 209.189 118.714 205.779 115.754 202.379H115.744ZM182.464 218.869C192.914 211.529 198.924 200.789 202.964 188.749C205.234 181.979 207.474 175.149 206.524 167.759C205.364 170.059 204.144 172.369 203.624 174.829C200.944 187.299 196.494 199.009 189.294 209.589C187.084 212.839 184.634 215.929 182.464 218.869ZM219.394 185.089C220.874 189.859 222.354 194.639 223.864 199.519C226.954 198.059 229.844 196.549 232.184 194.199C232.564 193.809 232.964 193.029 232.824 192.599C231.464 188.289 229.994 184.019 228.604 179.849C225.454 181.649 222.494 183.329 219.394 185.099V185.089ZM91.2045 180.009C89.8345 184.149 88.4145 188.389 87.0645 192.659C86.9545 193.019 87.1645 193.639 87.4345 193.929C89.8845 196.509 92.9345 198.159 96.2145 199.529C97.6645 194.629 99.0745 189.879 100.424 185.319C97.3145 183.529 94.3645 181.839 91.2045 180.019V180.009ZM239.674 215.159C237.164 219.559 233.854 222.429 229.764 224.429C229.484 224.569 229.164 225.119 229.224 225.409C229.814 228.449 230.474 231.479 231.124 234.549C231.254 234.509 231.434 234.509 231.504 234.419C234.764 230.669 238.034 226.929 241.244 223.139C241.504 222.829 241.594 222.199 241.494 221.779C240.984 219.709 240.374 217.659 239.684 215.149L239.674 215.159ZM80.1045 215.349C79.8645 216.349 79.8145 217.109 79.5045 217.729C77.6645 221.359 78.7245 224.309 81.4145 227.039C83.8645 229.529 86.1845 232.159 88.8345 235.019C89.5345 231.329 90.1345 228.139 90.7445 224.899C86.2045 222.909 82.8445 219.679 80.1145 215.359L80.1045 215.349ZM177.014 114.459C178.454 113.289 180.004 112.109 181.434 110.809C181.764 110.509 181.914 109.699 181.764 109.249C180.334 104.989 178.844 100.759 177.324 96.5288C177.174 96.1088 176.804 95.5588 176.424 95.4588C174.754 95.0188 173.054 94.7188 171.534 94.4088C173.354 101.079 175.154 107.639 177.014 114.459ZM142.694 114.479C144.554 107.639 146.344 101.039 148.134 94.4388C146.974 94.6888 145.614 95.0288 144.234 95.2488C143.274 95.4088 142.644 95.8188 142.314 96.7588C140.844 100.989 139.334 105.209 137.864 109.439C137.764 109.729 137.724 110.249 137.894 110.389C139.504 111.819 141.174 113.189 142.694 114.469V114.479ZM176.694 207.929C175.334 205.749 174.234 203.869 173.004 202.079C172.744 201.699 172.034 201.499 171.514 201.459C168.174 201.259 165.014 201.799 162.334 204.019C162.114 204.199 161.824 204.299 161.564 204.439C160.364 205.099 159.214 205.229 157.984 204.439C156.714 203.619 155.384 202.889 154.054 202.169C153.554 201.899 152.984 201.669 152.434 201.629C150.974 201.529 149.504 201.509 148.034 201.519C147.584 201.519 146.914 201.589 146.714 201.889C145.464 203.749 144.314 205.679 143.184 207.509C145.764 206.869 148.184 205.869 150.644 205.739C155.954 205.449 161.294 205.639 166.624 205.549C169.404 205.499 172.074 205.819 174.564 207.149C175.104 207.439 175.714 207.589 176.684 207.939L176.694 207.929ZM101.724 180.509C102.424 178.389 103.054 176.659 103.534 174.879C103.634 174.529 103.304 173.889 102.974 173.639C101.654 172.639 100.254 171.749 98.8945 170.799C97.9945 170.169 97.1245 169.519 96.0845 168.759C95.0745 171.119 94.1245 173.249 93.2845 175.419C93.1645 175.719 93.5145 176.449 93.8345 176.619C96.3745 177.939 98.9645 179.159 101.714 180.509H101.724ZM223.484 168.759C220.924 170.549 218.544 172.229 216.094 173.949C216.804 176.089 217.484 178.139 218.244 180.429C221.224 178.929 224.014 177.519 226.894 176.059C225.704 173.509 224.654 171.259 223.484 168.759ZM164.044 228.029H155.194C155.364 229.789 155.464 231.339 155.694 232.869C155.744 233.199 156.234 233.689 156.544 233.709C158.494 233.819 160.444 233.859 162.384 233.799C162.754 233.789 163.364 233.299 163.434 232.949C163.724 231.339 163.854 229.689 164.044 228.029ZM95.8145 236.309C97.0945 237.639 97.1045 237.659 98.2445 237.289C103.604 235.509 108.714 233.209 113.414 230.049C114.414 229.379 114.554 228.719 113.704 227.949C110.724 229.549 107.904 231.219 104.944 232.609C101.984 233.989 98.8945 235.089 95.8145 236.329V236.309ZM224.214 236.219C217.584 234.369 211.684 231.399 206.064 227.879C204.904 228.959 205.504 229.579 206.454 230.199C211.064 233.219 216.074 235.359 221.224 237.249C222.584 237.749 223.294 237.119 224.214 236.219ZM134.344 107.429C135.594 103.959 136.694 100.879 137.954 97.3688C135.314 98.6588 133.094 99.7388 130.714 100.899C131.954 103.139 133.054 105.119 134.344 107.429ZM182.354 97.6788C182.264 97.7988 182.174 97.9188 182.084 98.0388C183.144 101.019 184.194 103.989 185.354 107.259C186.704 105.039 187.854 103.149 189.144 101.029C186.724 99.8388 184.534 98.7588 182.354 97.6788ZM162.714 116.619C162.714 114.869 161.354 113.409 159.744 113.419C158.174 113.419 156.804 114.869 156.834 116.489C156.864 118.209 158.124 119.469 159.804 119.459C161.444 119.459 162.724 118.209 162.714 116.609V116.619ZM175.154 178.409C180.674 180.369 185.554 177.819 189.914 173.789C184.814 175.389 179.644 177.009 175.154 178.409ZM129.784 173.809C133.904 177.669 138.564 180.419 144.074 178.389C139.634 176.969 134.644 175.369 129.784 173.809ZM179.874 244.119C184.014 242.649 187.824 240.659 190.634 237.139C187.044 239.469 183.464 241.789 179.874 244.119ZM139.344 244.149C135.874 241.779 132.404 239.409 128.934 237.049C131.604 240.579 135.324 242.559 139.344 244.149Z" fill="black"/>
<path d="M80.4344 114.509C77.9944 118.639 75.5344 122.619 73.2744 126.719C71.6244 129.699 70.1944 132.809 68.7444 135.909C67.6444 138.259 67.7044 138.289 64.9844 137.029C65.7544 135.039 66.3144 132.889 67.3544 131.019C70.2044 125.909 73.1644 120.859 76.2944 115.909C77.8444 113.469 77.2544 113.749 80.4344 114.509Z" fill="black"/>
<path d="M81.6445 129.689C81.6445 131.549 80.2545 132.949 78.4345 132.939C76.5545 132.919 75.3745 131.709 75.3645 129.779C75.3445 127.859 76.6945 126.469 78.5245 126.509C80.3045 126.549 81.6545 127.919 81.6445 129.689Z" fill="black"/>
<path d="M88.0642 118.219C88.0442 119.929 86.4642 121.389 84.6842 121.359C83.0842 121.329 81.7342 119.839 81.7642 118.129C81.7942 116.479 83.2842 114.999 84.8542 115.039C86.5342 115.089 88.0842 116.629 88.0642 118.219Z" fill="black"/>
<path d="M239.734 114.509C242.194 113.939 242.214 113.929 243.574 115.879C247.874 122.079 251.694 128.539 254.364 135.619C254.954 137.189 254.764 137.529 253.154 137.779C252.744 137.839 251.994 137.489 251.834 137.129C248.704 129.889 244.754 123.099 240.534 116.449C240.244 115.999 240.024 115.509 239.794 115.019C239.734 114.899 239.754 114.739 239.734 114.499V114.509Z" fill="black"/>
<path d="M244.744 129.658C244.764 131.538 243.464 132.888 241.594 132.918C239.724 132.948 238.364 131.638 238.294 129.758C238.234 127.918 239.574 126.618 241.544 126.628C243.424 126.628 244.724 127.858 244.744 129.658Z" fill="black"/>
<path d="M238.484 118.239C238.484 119.969 237.054 121.339 235.254 121.339C233.594 121.339 232.114 119.799 232.144 118.089C232.164 116.549 233.634 115.059 235.144 115.039C236.904 115.019 238.494 116.539 238.494 118.239H238.484Z" fill="black"/>
<path d="M401.8 146.4C454.2 146.4 454.2 146.8 454.2 189C454.2 230.2 454.2 230.6 391.2 231.6C379.8 231.6 360.2 231.6 344.2 231.6V211C377.8 211 381.8 211 390.8 211C427.8 210.6 428.8 210.6 428.8 190.6C428.8 168 428.8 168 401.8 168C344.2 168 344.8 168 344.8 131.4C344.8 88.2 344.8 88.6 412.2 88.6C423.8 88.6 437.8 88.2 453.8 88.2L446.8 109.2C413.2 109.2 421.2 109.2 412.2 109.2C370.8 109.2 370.8 109.8 370.8 129.8C370.2 145.8 370.2 146.4 401.8 146.4ZM486.052 231.2L554.052 87.6H554.652L622.652 231.2H595.052L554.652 148.2H554.052L513.652 231.2H486.052ZM654.898 231.8L666.498 87.8L734.498 161.2H734.898L802.898 87.8L814.498 231.8H786.898L779.898 147L734.898 197C734.898 197.4 734.498 198.2 734.498 197.8L689.898 148.2L682.898 231.8H654.898ZM954.311 88H981.911V175.4C981.911 231.4 982.311 232 921.311 232C861.911 232 861.311 231.4 861.311 175.4V88H888.911C888.911 88 888.911 154.4 888.911 176C888.911 206.4 888.911 206.4 921.311 206.4C954.311 206.4 954.311 206.4 954.311 176C954.311 154.4 954.311 88 954.311 88ZM1103.06 174.4L1140.06 232H1109.06L1074.66 174.4H1057.66V232H1030.06V151.4H1093.66C1116.06 151.4 1115.66 151.4 1115.66 132.4C1115.66 109.4 1115.66 109.4 1093.66 109.4H1030.66V88.4H1096.66C1140.06 88.4 1140.06 89 1140.06 130C1140.06 174 1140.06 174.4 1103.06 174.4ZM1174.65 231.2L1242.65 87.6H1243.25L1311.25 231.2H1283.65L1243.25 148.2H1242.65L1202.25 231.2H1174.65ZM1375.3 88V231.8H1347.7V88H1375.3Z" fill="black"/>
</svg>
